<svg width="24" height="22" viewBox="0 0 24 22" fill="none" xmlns="http://www.w3.org/2000/svg">
<path d="M22.3002 5H1.80017C1.40017 5 1.1001 5.29995 1.1001 5.69995V20.3C1.1001 20.7 1.40017 21 1.80017 21H22.3002C22.7002 21 23.0001 20.7 23.0001 20.3V5.69995C23.0001 5.29995 22.7002 5 22.3002 5Z" stroke="#F2BC18" stroke-width="2" stroke-miterlimit="10" stroke-linecap="round" stroke-linejoin="round"/>
<path d="M23 11H19" stroke="#F2BC18" stroke-width="2" stroke-miterlimit="10" stroke-linecap="round" stroke-linejoin="round"/>
<path d="M12 21V11" stroke="#F2BC18" stroke-width="2" stroke-miterlimit="10" stroke-linecap="round" stroke-linejoin="round"/>
<path d="M8 4.69995V2.5C8 1.7 8.69998 1 9.59998 1H14.4C15.3 1 16 1.7 16 2.5V4.69995" stroke="#F2BC18" stroke-width="2" stroke-miterlimit="10" stroke-linecap="round" stroke-linejoin="round"/>
<path d="M5 11H1" stroke="#F2BC18" stroke-width="2" stroke-miterlimit="10" stroke-linecap="round" stroke-linejoin="round"/>
<path d="M23 11H19" stroke="#F2BC18" stroke-width="2" stroke-miterlimit="10" stroke-linecap="round" stroke-linejoin="round"/>
<path d="M15.0001 11H9.1001" stroke="#F2BC18" stroke-width="2" stroke-miterlimit="10" stroke-linecap="round" stroke-linejoin="round"/>
<path d="M19 9V12.3C19 13.2 18.1 14 17 14C16.5 14 16 13.8 15.6 13.5C15.2 13.2 15 12.8 15 12.3V9H19Z" stroke="#F2BC18" stroke-width="2" stroke-miterlimit="10" stroke-linecap="round" stroke-linejoin="round"/>
<path d="M9 9V12.3C9 13.2 8.1 14 7 14C6.5 14 5.99998 13.8 5.59998 13.5C5.19998 13.2 5 12.8 5 12.3V9H9Z" stroke="#F2BC18" stroke-width="2" stroke-miterlimit="10" stroke-linecap="round" stroke-linejoin="round"/>
</svg>
