<svg width="70" height="70" viewBox="0 0 70 70" fill="none" xmlns="http://www.w3.org/2000/svg">
<g clip-path="url(#clip0)">
<path d="M1.02692 7.10278H5.69754V31.5005H1.02692V7.10278Z" fill="#F2BC18"/>
<path d="M22.1213 7.10278H26.7919V36.6553H22.1213V7.10278Z" fill="#F2BC18"/>
<path d="M43.2119 7.10278H47.8825V36.6553H43.2119V7.10278Z" fill="#F2BC18"/>
<path d="M64.3024 7.10278H68.973V31.5005H64.3024V7.10278Z" fill="#F2BC18"/>
<path d="M1.02692 36.6748H68.9731V43.5043H1.02692V36.6748Z" fill="#ECF3FC"/>
<path d="M1.02692 43.5042H9.91521V62.8971H1.02692V43.5042Z" fill="#F2BC18"/>
<path d="M9.91522 49.3596V43.5042H15.7706C15.7705 46.7382 13.1491 49.3596 9.91522 49.3596Z" fill="#F2BC18"/>
<path d="M68.973 62.8972H60.0847V43.5042H68.973V62.8972Z" fill="#F2BC18"/>
<path d="M60.0848 49.3596V43.5042H54.2294C54.2294 46.7382 56.8509 49.3596 60.0848 49.3596Z" fill="#F2BC18"/>
<path d="M14.507 36.6749H1.02692V31.5122H9.34424C12.1955 31.5122 14.507 33.8236 14.507 36.6749Z" fill="#ECF3FC"/>
<path d="M68.9731 36.6749H55.493C55.493 33.8236 57.8045 31.5122 60.6558 31.5122H68.9731V36.6749Z" fill="#ECF3FC"/>
<path d="M70 7.10261C70 6.53547 69.5403 6.07568 68.9731 6.07568H64.3025C63.7352 6.07568 63.2755 6.53547 63.2755 7.10261C63.2755 11.0633 60.0533 14.2855 56.0925 14.2855C52.1318 14.2855 48.9096 11.0633 48.9096 7.10261C48.9096 6.53547 48.4499 6.07568 47.8826 6.07568H43.2119C42.6446 6.07568 42.185 6.53547 42.185 7.10261C42.185 11.0633 38.9627 14.2855 35.0021 14.2855C31.0414 14.2855 27.8191 11.0633 27.8191 7.10261C27.8191 6.53547 27.3594 6.07568 26.7922 6.07568H22.1216C21.5545 6.07568 21.0947 6.53547 21.0947 7.10261C21.0947 11.0633 17.8724 14.2855 13.9118 14.2855C9.9511 14.2855 6.72886 11.0633 6.72886 7.10261C6.72886 6.53547 6.26907 6.07568 5.70193 6.07568C5.70125 6.07568 5.7007 6.07582 5.70002 6.07582C5.69933 6.07582 5.69865 6.07568 5.6981 6.07568H1.02693C0.459791 6.07568 0 6.53547 0 7.10261V50.3997C0 50.9668 0.459791 51.4266 1.02693 51.4266C1.59407 51.4266 2.05386 50.9668 2.05386 50.3997V44.5312H8.88829V49.3597V61.8705H2.05386V54.5075C2.05386 53.9404 1.59407 53.4806 1.02693 53.4806C0.459791 53.4806 0 53.9404 0 54.5075V62.8974C0 63.4646 0.459791 63.9244 1.02693 63.9244H9.91522C10.4824 63.9244 10.9422 63.4646 10.9422 62.8974V50.3097C13.9166 49.8628 16.2737 47.5056 16.7206 44.5312H35.0971C35.6642 44.5312 36.124 44.0714 36.124 43.5043C36.124 42.9372 35.6642 42.4774 35.0971 42.4774H2.05386V37.7017H67.9461V42.4774H39.2048C38.6375 42.4774 38.1779 42.9372 38.1779 43.5043C38.1779 44.0714 38.6375 44.5312 39.2048 44.5312H53.2794C53.7263 47.5056 56.0834 49.8628 59.0578 50.3097V62.8974C59.0578 63.4646 59.5175 63.9244 60.0848 63.9244H68.9731C69.5403 63.9244 70 63.4646 70 62.8974V7.10261ZM10.9422 48.2229V44.5312H14.6338C14.2338 46.371 12.7819 47.8228 10.9422 48.2229ZM67.9461 30.4734H65.3294V8.12955H67.9461V30.4734ZM63.2755 12.9008V30.485H60.6558C60.6077 30.485 60.5603 30.4875 60.5125 30.4887V15.2109C61.5783 14.6276 62.5163 13.8394 63.2755 12.9008ZM58.4587 16.0309V30.8895C56.4364 31.6601 54.9197 33.4611 54.5529 35.648H53.7264V16.0309C54.482 16.2313 55.2748 16.3394 56.0925 16.3394C56.9102 16.3394 57.703 16.2313 58.4587 16.0309ZM51.6724 15.211V35.6479H48.9094V12.9009C49.6687 13.8396 50.6066 14.6276 51.6724 15.211ZM46.8557 35.6282H44.2388V8.12955H46.8557V35.6282ZM42.1848 12.9009V35.6479H39.422V15.2109C40.4879 14.6276 41.4257 13.8394 42.1848 12.9009ZM37.3682 16.0309V35.6479H32.6359V16.0309C33.3914 16.2313 34.1842 16.3394 35.0021 16.3394C35.8198 16.3394 36.6126 16.2313 37.3682 16.0309ZM30.582 15.211V35.6479H27.819V12.9009C28.5781 13.8394 29.5161 14.6276 30.582 15.211ZM25.7652 35.6282H23.1484V8.12955H25.7652V35.6282ZM21.0944 12.9009V35.6479H18.3314V15.211C19.3974 14.6276 20.3353 13.8394 21.0944 12.9009ZM16.2777 16.0309V35.6479H15.4474C15.0792 33.4628 13.5511 31.6695 11.5454 30.8963V16.0309C12.301 16.2313 13.0938 16.3394 13.9116 16.3394C14.7293 16.3394 15.5221 16.2313 16.2777 16.0309ZM2.05386 32.539H9.34425C11.2463 32.539 12.8883 33.8585 13.3498 35.6479H2.05386V32.539ZM9.49144 15.211V30.4887C9.44229 30.4876 9.39354 30.4851 9.34411 30.4851H6.72462V12.8959C7.48441 13.8367 8.42371 14.6266 9.49144 15.211ZM4.67076 8.12955V30.4851H2.05386V8.12955H4.67076ZM56.6489 35.6479C57.1068 33.8625 58.7295 32.539 60.6558 32.539H67.9461V35.6479H56.6489ZM55.3662 44.5312H59.0578V48.2229C57.2181 47.8228 55.7663 46.371 55.3662 44.5312ZM67.9461 61.8704H61.1117V49.3596V44.5311H67.9461V61.8704Z" fill="black"/>
</g>
<defs>
<clipPath id="clip0">
<rect width="70" height="70" fill="white"/>
</clipPath>
</defs>
</svg>
