<svg width="70" height="70" viewBox="0 0 70 70" fill="none" xmlns="http://www.w3.org/2000/svg">
<g clip-path="url(#clip0)">
<path d="M65.3037 44.6254H53.9499V42.4249C53.9499 41.001 55.1042 39.8467 56.5282 39.8467H62.7253C64.1493 39.8467 65.3036 41.001 65.3036 42.4249V44.6254H65.3037Z" fill="#F2BC18"/>
<path d="M33.4188 28.2193C31.8349 27.9005 30.6954 26.5091 30.6954 24.8933V19.8311H22.3131V24.8933C22.3131 26.5091 21.1737 27.9005 19.5897 28.2193C19.3634 28.2648 19.1478 28.3082 18.954 28.347C18.9556 28.3485 18.9571 28.35 18.9588 28.3514C20.7431 29.8931 23.2341 31.2379 26.5043 31.3122C29.7744 31.2379 32.2655 29.8931 34.0498 28.3514C34.0514 28.35 34.0529 28.3484 34.0546 28.347C33.8607 28.3082 33.6452 28.2648 33.4188 28.2193Z" fill="white"/>
<path d="M36.1247 13.2077C36.1214 12.4283 35.4945 11.7991 34.7245 11.8024L34.1993 11.8046L34.1905 9.6879C34.1721 5.25315 30.5125 3.62306 26.455 3.59448C22.4152 3.65737 18.764 5.3021 18.7824 9.75366L18.7886 11.2459L18.7912 11.8703L18.2934 11.8706C17.1858 11.8712 16.2884 12.7697 16.2892 13.8772L16.2906 15.6956C16.2914 16.8029 17.1895 17.6999 18.2968 17.6993L18.8117 17.6991C18.8636 19.7471 19.7222 21.715 21.264 23.0474C22.5053 24.1201 24.2478 25.0535 26.5444 25.0696C28.8408 25.0339 30.5754 24.0856 31.8076 23.0024C33.3383 21.6569 34.1805 19.6818 34.2154 17.6333L34.7427 17.6311C35.5127 17.6278 36.1344 16.9933 36.1311 16.2139L36.1247 13.2077Z" fill="white"/>
<path d="M34.8194 28.4989C34.6058 28.4578 34.0529 28.3472 33.4188 28.2195C33.0148 28.1381 32.6411 27.9856 32.3066 27.7786C32.2433 27.8374 32.1807 27.897 32.1151 27.9538C30.7928 29.0965 28.9405 30.0909 26.5044 30.1253C24.0684 30.0908 22.2161 29.0965 20.8938 27.9538C20.8281 27.8971 20.7657 27.8375 20.7022 27.7786C20.3678 27.9856 19.9939 28.1381 19.59 28.2195C18.9561 28.3472 18.4032 28.4578 18.1895 28.4989C12.0613 29.6783 7.63232 35.0408 7.63232 41.2815V50.2761H45.3764V41.2815C45.3765 35.0408 40.9475 29.6783 34.8194 28.4989Z" fill="#F2BC18"/>
<path d="M33.2247 3.46272C33.2086 2.43145 32.368 1.60376 31.3365 1.60376H22.9597C19.6007 1.60376 16.8776 4.32679 16.8776 7.68583V11.7052C16.8776 12.2956 17.2513 12.8214 17.8088 13.0154L19.307 13.537C19.8306 13.7194 20.3775 13.33 20.3767 12.7755L20.3734 9.94128C20.3733 9.89575 20.3742 9.8505 20.3764 9.80552C20.4604 8.08395 22.6239 7.36987 23.7732 8.65448C25.1547 10.1989 27.9922 12.5519 31.8894 11.6102C32.3322 11.5032 32.791 11.7092 32.9943 12.1169L32.9947 12.1177C33.3994 12.9291 34.3439 13.3136 35.2001 13.0153C35.7577 12.8211 36.1312 12.2954 36.1312 11.7051V6.39985C36.1312 5.3869 35.3188 4.56112 34.3059 4.54458C33.7125 4.53501 33.2338 4.05608 33.2247 3.46272Z" fill="#F2BC18"/>
<path d="M26.5654 41.0112C20.0295 35.2849 10.2816 37.178 7.15069 37.989C6.5572 38.1427 6.14417 38.6785 6.14417 39.2915V43.8685H26.5653V41.0112H26.5654Z" fill="white"/>
<path d="M26.5655 41.0112C33.1015 35.2849 42.8494 37.178 45.9803 37.989C46.5737 38.1427 46.9868 38.6785 46.9868 39.2915V43.8685H26.5655V41.0112Z" fill="white"/>
<path d="M10.1569 68.3962H6.91869C6.25848 68.3962 5.72322 67.861 5.72322 67.2008V44.302H10.1569V68.3962Z" fill="white"/>
<path d="M63.0814 68.3962H59.8432V44.302H64.2768V67.2009C64.277 67.861 63.7417 68.3962 63.0814 68.3962Z" fill="white"/>
<path d="M67.6536 49.382H2.31984C1.60494 49.382 1.02539 48.8025 1.02539 48.0876V45.163C1.02539 44.4481 1.60494 43.8684 2.31984 43.8684H67.6536C68.3685 43.8684 68.9482 44.448 68.9482 45.163V48.0876C68.9482 48.8025 68.3685 49.382 67.6536 49.382Z" fill="white"/>
<path d="M66.5818 26.8528C67.9033 26.8528 68.9746 25.7815 68.9746 24.46C68.9746 23.1385 67.9033 22.0671 66.5818 22.0671C65.2602 22.0671 64.1889 23.1385 64.1889 24.46C64.1889 25.7815 65.2602 26.8528 66.5818 26.8528Z" fill="#F2BC18"/>
<path d="M58.6112 15.6554L51.9404 19.344L48.709 13.5L55.3797 9.81133C56.7281 9.06567 58.4256 9.55444 59.1712 10.9028L59.7026 11.8639C60.4483 13.2123 59.9597 14.9098 58.6112 15.6554Z" fill="#F2BC18"/>
<path d="M45.0393 11.6718L51.2886 22.9733C51.4697 23.3008 51.8938 23.3991 52.2022 23.1872C55.1883 21.1363 56.184 17.1128 54.3948 13.8771C52.6056 10.6414 48.6685 9.34554 45.3438 10.7842C45.0003 10.9328 44.8581 11.3444 45.0393 11.6718Z" fill="white"/>
<path d="M67.6536 42.8429H66.3291V42.425C66.3291 40.4379 64.7125 38.8212 62.7255 38.8212H62.5171L66.4048 27.8736C66.4635 27.8766 66.5226 27.8781 66.5819 27.8781C68.4667 27.8781 70.0001 26.3447 70.0001 24.4599C70.0001 22.575 68.4667 21.0416 66.5819 21.0416C65.9395 21.0416 65.3379 21.22 64.824 21.5296L59.246 16.4716C60.066 15.9732 60.6606 15.197 60.9278 14.2692C61.2097 13.2899 61.0933 12.2595 60.6002 11.3675L60.0686 10.4064C59.0505 8.56534 56.7242 7.89597 54.8836 8.91397L52.3414 10.3197C50.165 9.01638 47.4288 8.76481 44.9366 9.84325C44.0412 10.2307 43.6666 11.3085 44.142 12.168L50.3914 23.4697C50.8653 24.3263 51.9761 24.5869 52.7829 24.0325C54.8421 22.6181 56.0592 20.4306 56.2823 18.1147L57.3524 17.523L63.4628 23.0637C63.2711 23.4902 63.1635 23.9626 63.1635 24.4597C63.1635 25.554 63.681 26.5292 64.4835 27.1553L60.3408 38.8212H56.5281C54.5411 38.8212 52.9245 40.4379 52.9245 42.425V42.8429H48.0121V39.2915C48.0121 38.2108 47.2821 37.2668 46.2373 36.9963C46.0705 36.9531 45.8855 36.907 45.6855 36.8596C44.087 32.025 40.05 28.4612 35.0139 27.492C33.6157 27.222 33.2987 27.1864 32.8464 26.9064C32.843 26.9042 32.8392 26.903 32.8357 26.901C31.4664 26.0458 31.7588 24.5688 31.7211 24.3801C31.9811 24.1923 32.2362 23.9909 32.4848 23.7724C33.9623 22.4737 34.913 20.6325 35.171 18.617C36.3029 18.4099 37.1618 17.4076 37.1567 16.2113L37.1502 13.203C37.1491 12.952 37.1081 12.7045 37.0321 12.4677C37.1129 12.226 37.1567 11.9694 37.1567 11.7051V6.39985C37.1567 4.83702 35.8854 3.54476 34.3227 3.51933C34.2826 3.51864 34.2508 3.48679 34.2501 3.44659C34.2255 1.86503 32.9185 0.578369 31.3366 0.578369H22.9597C19.0407 0.578369 15.8523 3.76679 15.8523 7.68583V11.7051C15.8523 11.821 15.8617 11.9355 15.8778 12.0478C15.4823 12.5694 15.2634 13.2082 15.264 13.8778L15.2653 15.6962C15.2664 17.22 16.398 18.4843 17.8649 18.694C18.1404 20.706 19.1062 22.5377 20.5935 23.8232C20.8202 24.0191 21.052 24.2016 21.2879 24.3724C21.2496 24.5643 21.5446 26.0452 20.1729 26.9012C20.1696 26.9032 20.166 26.9044 20.1627 26.9064C19.3393 27.4158 18.2246 27.2731 16.1224 27.9877C15.5863 28.17 15.2994 28.7524 15.4816 29.2886C15.6639 29.8248 16.2464 30.1119 16.7825 29.9294C18.309 29.4107 19.6812 29.3454 20.5483 29C24.1355 31.8701 28.8799 31.8647 32.4603 29C32.9123 29.1801 33.2154 29.2334 34.6254 29.5059C38.5298 30.2571 41.7313 32.8342 43.3098 36.3914C41.6765 36.1325 39.6665 35.9407 37.5099 36.0241C33.1313 36.1935 29.4555 37.4253 26.5653 39.684C23.675 37.4254 19.9991 36.1936 15.6207 36.0241C13.4066 35.9385 11.3471 36.1427 9.69145 36.4121C10.4266 34.7544 11.5284 33.284 12.9362 32.0997C13.3695 31.7351 13.4252 31.0883 13.0606 30.655C12.6961 30.2215 12.0493 30.1661 11.6159 30.5304C9.60531 32.2222 8.12711 34.412 7.3124 36.8917C7.16324 36.9279 7.0227 36.9631 6.89363 36.9966C5.84855 37.2671 5.11875 38.211 5.11875 39.2918V42.8433H2.31984C1.0407 42.8429 0 43.8836 0 45.1628V48.0875C0 49.3666 1.0407 50.4074 2.31984 50.4074H4.69766V67.2009C4.69766 68.4255 5.69393 69.4217 6.91852 69.4217H63.0813C64.3059 69.4217 65.3022 68.4255 65.3022 67.2009V57.3192C65.3022 56.7528 64.8432 56.2939 64.2768 56.2939C63.7104 56.2939 63.2514 56.7528 63.2514 57.3192V67.2007C63.2514 67.2945 63.175 67.3708 63.0813 67.3708H60.8686V50.4073H63.2516V52.5236C63.2516 53.09 63.7105 53.549 64.277 53.549C64.8434 53.549 65.3023 53.09 65.3023 52.5236V50.4073H67.6536C68.9328 50.4073 69.9736 49.3666 69.9736 48.0873V45.1626C69.9736 43.8836 68.9328 42.8429 67.6536 42.8429ZM66.5818 23.0924C67.3358 23.0924 67.9492 23.7058 67.9492 24.4599C67.9492 25.2139 67.3358 25.8273 66.5818 25.8273C65.8278 25.8273 65.2143 25.2139 65.2143 24.4599C65.2143 23.7058 65.8278 23.0924 66.5818 23.0924ZM54.2603 17.5833C54.1897 19.3017 53.3906 20.9566 51.9691 22.0853L46.1532 11.5675C48.035 10.9035 50.0556 11.2147 51.6191 12.2943C51.6681 12.3367 51.7204 12.3741 51.7757 12.4059C52.4639 12.9142 53.0564 13.5754 53.4975 14.3732C54.0232 15.3239 54.2708 16.3535 54.2652 17.368C54.2562 17.4391 54.2542 17.5111 54.2603 17.5833ZM58.9568 13.702C58.8265 14.1548 58.5275 14.53 58.1152 14.758L56.1769 15.8298C56.0185 14.993 55.7267 14.1667 55.2922 13.381C54.9486 12.7596 54.5352 12.2012 54.069 11.7078L55.8759 10.7087C56.7268 10.2378 57.803 10.5472 58.2738 11.399L58.8053 12.36C59.0334 12.7725 59.0872 13.2491 58.9568 13.702ZM17.903 7.68569C17.903 4.89731 20.1715 2.62901 22.9597 2.62901H31.3366C31.8052 2.62901 32.1922 3.01005 32.1996 3.47858C32.2176 4.63249 33.1357 5.5511 34.2893 5.56983C34.7397 5.57722 35.1061 5.9495 35.1061 6.39985V11.7052C35.1061 11.859 35.0085 11.9964 34.863 12.047C34.4952 12.1758 34.0863 12.0089 33.9121 11.6596C33.4949 10.8226 32.5644 10.3923 31.6486 10.6137C30.1905 10.9656 27.3284 11.0908 24.5375 7.97089C22.7873 6.01513 19.4816 7.10314 19.3523 9.75548C19.3447 9.90956 19.3491 9.78077 19.351 12.4666L18.1463 12.0472C18.0009 11.9966 17.9033 11.8592 17.9033 11.7052V7.68569H17.903ZM22.2976 27.7448C22.8397 27.106 23.189 26.3239 23.3 25.4794C25.3855 26.3005 27.6393 26.2972 29.7098 25.4861C29.8218 26.328 30.1704 27.1078 30.7111 27.7448C28.1322 29.5295 24.9073 29.5507 22.2976 27.7448ZM31.1307 22.232C28.3782 24.6515 24.6552 24.6224 21.9345 22.2713C20.6473 21.1589 19.8827 19.4827 19.8367 17.6727C19.8226 17.1168 19.3677 16.6733 18.8115 16.6733C18.8114 16.6733 18.8113 16.6733 18.811 16.6733L18.2963 16.6736C18.2961 16.6736 18.296 16.6736 18.2957 16.6736C17.7558 16.6736 17.3164 16.2344 17.316 15.6944L17.3146 13.9218C17.4776 13.9917 17.4151 13.9611 18.9697 14.5051C20.1489 14.9159 21.4039 14.0423 21.4018 12.774C21.3989 9.76519 21.397 9.92378 21.4003 9.85515C21.4396 9.05192 22.4678 8.73337 23.0087 9.3378C24.2722 10.7502 26.722 12.8539 30.1036 12.8537C30.7359 12.8537 31.4012 12.7801 32.097 12.6145C32.6711 13.722 33.9019 14.3075 35.1012 14.0951L35.1058 16.2178C35.1066 16.4306 34.9419 16.6045 34.7383 16.6054L34.211 16.6077C33.6532 16.6101 33.1997 17.0579 33.1901 17.6156C33.1594 19.4263 32.4086 21.1087 31.1307 22.232ZM54.9752 42.4251C54.9752 41.5687 55.6719 40.8721 56.528 40.8721H62.7252C63.5815 40.8721 64.278 41.5688 64.278 42.4251V42.8431H54.975V42.4251H54.9752ZM27.5908 41.4876C33.7954 36.4197 43.0068 38.2782 45.7231 38.9816C45.8633 39.0179 45.9613 39.1452 45.9613 39.2915V42.8431H27.5908V41.4876ZM7.16967 39.2915C7.16967 39.1454 7.26756 39.0179 7.40797 38.9816C10.1237 38.278 19.3353 36.4189 25.5402 41.4864V42.8429H7.16967V39.2915ZM9.13145 67.3709H6.91852C6.82473 67.3709 6.74844 67.2945 6.74844 67.2009V50.4073H9.13145V67.3709ZM58.8178 67.3709H11.1822V50.4073H58.8178V67.3709ZM67.9228 48.0875C67.9228 48.2359 67.8021 48.3567 67.6536 48.3567H2.31984C2.1715 48.3567 2.05078 48.2359 2.05078 48.0875V45.1628C2.05078 45.0144 2.1715 44.8937 2.31984 44.8937H67.6536C67.8021 44.8937 67.9228 45.0144 67.9228 45.1628V48.0875Z" fill="black"/>
</g>
<defs>
<clipPath id="clip0">
<rect width="70" height="70" fill="white"/>
</clipPath>
</defs>
</svg>
