<svg width="70" height="70" viewBox="0 0 70 70" fill="none" xmlns="http://www.w3.org/2000/svg">
<g clip-path="url(#clip0)">
<path d="M34.795 23.7028C38.6086 23.7028 41.7001 20.6113 41.7001 16.7977C41.7001 12.9841 38.6086 9.89258 34.795 9.89258C30.9814 9.89258 27.8899 12.9841 27.8899 16.7977C27.8899 20.6113 30.9814 23.7028 34.795 23.7028Z" fill="#F2BC18"/>
<path d="M32.7746 1.02539H37.1843V9.95572H32.7746V1.02539Z" fill="white"/>
<path d="M27.8278 68.9746L27.0227 68.1818C24.9319 66.1228 23.9024 63.2176 24.2302 60.3016L27.2704 19.3814C27.3471 18.3482 28.6767 17.9804 29.2735 18.8274L31.6022 22.132C32.7412 23.7484 33.2364 25.7314 32.991 27.6936L27.8278 68.9746Z" fill="white"/>
<path d="M41.7622 68.9746L42.5673 68.1818C44.6582 66.1228 45.6877 63.2176 45.3598 60.3016L42.3196 19.3814C42.2429 18.3482 40.9133 17.9804 40.3165 18.8274L37.9878 22.132C36.8488 23.7484 36.3536 25.7314 36.599 27.6936L41.7622 68.9746Z" fill="#F2BC18"/>
<path d="M35 30.0877C37.2919 30.0877 39.1498 28.2298 39.1498 25.9379C39.1498 23.646 37.2919 21.7881 35 21.7881C32.7081 21.7881 30.8502 23.646 30.8502 25.9379C30.8502 28.2298 32.7081 30.0877 35 30.0877Z" fill="white"/>
<path d="M27.7137 45.5001C28.1114 43.761 27.0241 42.0288 25.285 41.631C23.546 41.2333 21.8138 42.3206 21.416 44.0597C21.0183 45.7987 22.1056 47.5309 23.8447 47.9287C25.5837 48.3264 27.3159 47.2391 27.7137 45.5001Z" fill="white"/>
<path d="M46.1972 47.9622C47.9327 47.5484 49.0042 45.8061 48.5904 44.0706C48.1765 42.3351 46.4342 41.2637 44.6987 41.6775C42.9632 42.0913 41.8918 43.8336 42.3056 45.5691C42.7194 47.3046 44.4618 48.376 46.1972 47.9622Z" fill="white"/>
<path d="M49.6933 44.8015C49.6933 42.4553 47.7845 40.5465 45.4383 40.5465C45.2637 40.5465 45.0919 40.5584 44.9226 40.5789L43.3421 19.3055C43.3002 18.74 43.0474 18.2384 42.6508 17.8819C42.6997 17.5237 42.7254 17.1607 42.7254 16.7978C42.7254 13.6469 40.8781 10.9197 38.2097 9.64141V1.02539C38.2097 0.459102 37.7506 0 37.1843 0H32.7745C32.2082 0 31.7491 0.459102 31.7491 1.02539V9.47639C28.8837 10.6729 26.8644 13.5036 26.8644 16.7977C26.8644 17.1604 26.8905 17.5237 26.9393 17.8814C26.5426 18.2381 26.2896 18.7398 26.2477 19.3054L25.3011 32.0454C25.2592 32.6102 25.683 33.1019 26.2478 33.1439C26.2736 33.1458 26.2993 33.1468 26.3248 33.1468C26.8566 33.1468 27.3063 32.7362 27.3463 32.1973L28.2928 19.4573C28.295 19.4277 28.2969 19.4022 28.3501 19.3875C28.4032 19.3729 28.4181 19.3937 28.4352 19.418L30.7637 22.7225C30.793 22.7641 30.8214 22.8069 30.8499 22.8493C30.2062 23.712 29.8245 24.7812 29.8245 25.9379C29.8245 27.5293 30.547 28.9547 31.6807 29.9048L27.0764 66.7168C25.6522 64.9519 24.9913 62.7056 25.2489 60.4162C25.2503 60.4033 25.2515 60.3904 25.2525 60.3776L26.1154 48.761C27.6948 48.1388 28.8159 46.5991 28.8159 44.8014C28.8159 43.2279 27.9566 41.8521 26.6834 41.116L27.0881 35.6691C27.13 35.1043 26.7062 34.6125 26.1414 34.5706C25.5777 34.5286 25.0849 34.9524 25.0429 35.5172L24.6691 40.5493C24.6331 40.5483 24.5973 40.5465 24.5611 40.5465C22.2149 40.5465 20.3061 42.4554 20.3061 44.8015C20.3061 46.971 21.9385 48.7653 24.0395 49.0232L23.2087 60.2068C22.8499 63.4502 23.977 66.6222 26.3029 68.9124L27.108 69.7052C27.3031 69.8973 27.5627 70 27.8276 70C27.9402 70 28.054 69.9814 28.1639 69.9433C28.5325 69.8152 28.7965 69.4891 28.8449 69.1019L31.756 45.8269H37.8335L39.4257 58.5572C39.4906 59.0759 39.9322 59.4554 40.4419 59.4554C40.4843 59.4554 40.5272 59.4527 40.5704 59.4474C41.1324 59.3771 41.5309 58.8645 41.4606 58.3028L37.9448 30.1902C39.2913 29.2548 40.1752 27.6981 40.1752 25.938C40.1752 24.6553 39.705 23.4812 38.9295 22.576L41.1548 19.418C41.1719 19.3937 41.1866 19.373 41.2398 19.3875C41.293 19.4022 41.2949 19.4279 41.2971 19.4573L42.9252 41.3708C41.8701 42.1459 41.1835 43.3947 41.1835 44.8014C41.1835 46.4335 42.1077 47.8531 43.4597 48.5665L44.3372 60.3775C44.3381 60.3903 44.3394 60.4032 44.3407 60.416C44.5982 62.7055 43.9371 64.9519 42.5131 66.7167L41.9495 62.2106C41.8793 61.6487 41.3672 61.2499 40.8048 61.3204C40.2429 61.3907 39.8443 61.9032 39.9146 62.4652L40.7446 69.1018C40.793 69.4889 41.057 69.815 41.4256 69.9431C41.5357 69.9814 41.6492 69.9999 41.762 69.9999C42.0268 69.9999 42.2864 69.8972 42.4815 69.7051L43.2866 68.9123C45.6125 66.6221 46.7396 63.4499 46.3809 60.2066L45.5522 49.0533C47.8459 48.9928 49.6933 47.1095 49.6933 44.8015ZM22.3575 44.8015C22.3575 43.5861 23.3462 42.5973 24.5616 42.5973C25.7771 42.5973 26.7658 43.5862 26.7658 44.8015C26.7658 46.0169 25.7771 47.0057 24.5616 47.0057C23.3462 47.0055 22.3575 46.0169 22.3575 44.8015ZM33.8 8.93033V2.05078H36.1591V8.93033L36.1464 8.98475C35.707 8.909 35.2559 8.86717 34.7952 8.86717C34.4582 8.86717 34.1266 8.89068 33.8004 8.93184L33.8 8.93033ZM37.5773 43.7761H32.0128L33.6202 30.925C34.0598 31.0468 34.5221 31.1132 35 31.1132C35.3356 31.1132 35.6636 31.08 35.9816 31.0186L37.5773 43.7761ZM35 29.0624C33.2772 29.0624 31.8755 27.6608 31.8755 25.938C31.8755 24.2152 33.2772 22.8136 35 22.8136C36.7228 22.8136 38.1244 24.2152 38.1244 25.938C38.1244 27.6608 36.7228 29.0624 35 29.0624ZM39.4785 18.2368L37.3127 21.3104C36.6161 20.9609 35.8311 20.7628 35.0001 20.7628C34.0491 20.7628 33.1578 21.0219 32.3911 21.4714L30.1119 18.2368C29.8192 17.8213 29.4074 17.5371 28.9481 17.4088C28.9273 17.2062 28.9154 17.0019 28.9154 16.7977C28.9154 13.5557 31.5532 10.9179 34.7952 10.9179C38.0372 10.9179 40.6749 13.5557 40.6749 16.7977C40.6749 17.0021 40.6634 17.2063 40.6426 17.4088C40.1831 17.5369 39.7712 17.8212 39.4785 18.2368ZM45.4385 47.0055C44.223 47.0055 43.2344 46.0168 43.2344 44.8014C43.2344 43.5859 44.2232 42.5972 45.4385 42.5972C46.6539 42.5972 47.6426 43.5861 47.6426 44.8014C47.6425 46.0169 46.6539 47.0055 45.4385 47.0055Z" fill="black"/>
</g>
<defs>
<clipPath id="clip0">
<rect width="70" height="70" fill="white"/>
</clipPath>
</defs>
</svg>
