<svg width="70" height="70" viewBox="0 0 70 70" fill="none" xmlns="http://www.w3.org/2000/svg">
<g clip-path="url(#clip0)">
<path d="M60.2842 33.2602H9.71579V25.2915C9.71579 14.4693 18.489 5.69604 29.3113 5.69604H40.6886C51.5109 5.69604 60.2841 14.4693 60.2841 25.2915V33.2602H60.2842Z" fill="#F2BC18"/>
<path d="M40.6888 5.69604H36.5872C47.4095 5.69604 56.1827 14.4693 56.1827 25.2915V33.2603H60.2843V25.2915C60.2843 14.4692 51.511 5.69604 40.6888 5.69604Z" fill="#F2BC18"/>
<path d="M53.1179 10.1865C51.4668 8.82478 49.5893 7.72816 47.5512 6.95898V16.4717C47.5512 16.9553 47.8257 17.3969 48.2595 17.6109L51.2857 19.1037C52.1298 19.5202 53.1179 18.9059 53.1179 17.9646V10.1865Z" fill="white"/>
<path d="M47.5512 9.04834C49.7747 10.5521 51.6725 12.5005 53.1179 14.7656V10.1422C51.4664 8.78584 49.5891 7.69482 47.5512 6.93262V9.04834Z" fill="#F2BC18"/>
<path d="M9.96576 39.8611V49.8979C9.96576 53.4058 12.8095 56.2496 16.3174 56.2496C18.2706 56.2496 20.1364 55.3673 21.319 53.813C23.5981 50.8173 27.2008 48.8834 31.2553 48.8834H38.7448C42.7993 48.8834 46.402 50.8173 48.6811 53.813C49.8637 55.3673 51.7295 56.2496 53.6825 56.2496C57.1905 56.2496 60.0342 53.4058 60.0342 49.8979V39.8611H9.96576Z" fill="white"/>
<path d="M62.3083 39.8611H7.69163C6.35001 39.8611 5.26227 38.7735 5.26227 37.4318V33.6462C5.26227 33.4332 5.43495 33.2605 5.64796 33.2605H64.3518C64.5649 33.2605 64.7377 33.4332 64.7377 33.6462V37.4318C64.7377 38.7734 63.6501 39.8611 62.3083 39.8611Z" fill="#F2BC18"/>
<path d="M40.28 20.7678H29.7199C29.176 20.7678 28.7351 21.2087 28.7351 21.7526V33.2605H41.2647V21.7526C41.2648 21.2087 40.8239 20.7678 40.28 20.7678Z" fill="#F2BC18"/>
<path d="M22.4488 6.95898C20.4108 7.72816 18.5332 8.82478 16.8822 10.1865V17.9647C16.8822 18.906 17.8703 19.5203 18.7144 19.1038L21.7405 17.611C22.1742 17.3971 22.4487 16.9554 22.4487 16.4719V6.95898H22.4488Z" fill="white"/>
<path d="M37.4278 1.02539H32.5722C31.7255 1.02539 31.0392 1.71172 31.0392 2.55842V20.7677H38.9608V2.55842C38.9608 1.71172 38.2745 1.02539 37.4278 1.02539Z" fill="white"/>
<path d="M55.9325 39.8608V49.8976C55.9325 52.69 54.1298 55.0599 51.6252 55.9111C52.2809 56.1322 52.9756 56.2493 53.6824 56.2493C57.1903 56.2493 60.0341 53.4056 60.0341 49.8976V39.8608H55.9325Z" fill="white"/>
<path d="M64.3519 33.2603H60.2503C60.4633 33.2603 60.6361 33.4329 60.6361 33.6459V37.4315C60.6361 38.7732 59.5485 39.8609 58.2068 39.8609H62.3083C63.65 39.8609 64.7377 38.7733 64.7377 37.4315V33.6459C64.7377 33.4331 64.565 33.2603 64.3519 33.2603Z" fill="#F2BC18"/>
<path d="M40.2801 20.7678H36.1786C36.7224 20.7678 37.1634 21.2087 37.1634 21.7526V33.2605H41.2649V21.7526C41.2649 21.2087 40.824 20.7678 40.2801 20.7678Z" fill="#F2BC18"/>
<path d="M37.4278 1.02539H33.3262C34.1729 1.02539 34.8593 1.71172 34.8593 2.55842V20.7677H38.9608V2.55842C38.9608 1.71172 38.2745 1.02539 37.4278 1.02539Z" fill="#F2BC18"/>
<path d="M64.352 32.2349H61.3096V25.2916C61.3096 13.9213 52.0591 4.67072 40.6887 4.67072H39.9863V2.55842C39.9863 1.14762 38.8385 0 37.4278 0H32.5721C31.1615 0 30.0137 1.14762 30.0137 2.55842V4.67072H29.3113C17.9409 4.67072 8.69039 13.9213 8.69039 25.2916V32.235H5.64812C4.87006 32.235 4.23705 32.868 4.23705 33.6461V37.4317C4.23705 39.3367 5.78689 40.8864 7.69179 40.8864H8.94058V59.2365C8.94058 65.1716 13.7691 70.0001 19.7042 70.0001H50.2962C56.2313 70.0001 61.0598 65.1716 61.0598 59.2365V40.8864H62.3086C64.2135 40.8864 65.7634 39.3367 65.7634 37.4317V33.6461C65.7631 32.8679 65.1301 32.2349 64.352 32.2349ZM48.5766 8.48258C49.8323 9.0743 51.0118 9.80205 52.0953 10.6478C52.0944 10.6661 52.0926 10.6842 52.0926 10.7028V17.9646C52.0926 18.0771 52.0298 18.1397 51.977 18.1725C51.9243 18.2053 51.8402 18.2339 51.7394 18.1841L48.7133 16.6913C48.6291 16.6497 48.5767 16.5655 48.5767 16.4717V8.48258H48.5766ZM40.6887 6.7215C42.7271 6.7215 44.6894 7.05264 46.5258 7.66227V16.4717C46.5258 17.3521 47.0162 18.1411 47.8058 18.5306L50.8319 20.0234C51.1555 20.183 51.5028 20.2623 51.8489 20.2623C52.2692 20.2623 52.6877 20.1455 53.0597 19.9142C53.7381 19.4924 54.1432 18.7634 54.1432 17.9646V12.5053C57.3115 15.8376 59.2587 20.3414 59.2587 25.2916V25.4394H48.0942C47.5279 25.4394 47.0688 25.8985 47.0688 26.4648C47.0688 27.0311 47.5279 27.4902 48.0942 27.4902H59.2587V32.235H42.2901V28.6887C42.2901 28.1224 41.831 27.6633 41.2647 27.6633C40.6984 27.6633 40.2393 28.1224 40.2393 28.6887V32.235H29.7605V21.7931H30.0137H39.9861H40.2393V24.5871C40.2393 25.1534 40.6984 25.6125 41.2647 25.6125C41.831 25.6125 42.2901 25.1534 42.2901 24.5871V21.7525C42.2901 20.6441 41.3883 19.7423 40.2799 19.7423H39.9861V6.7215H40.6887ZM32.0645 2.55842C32.0645 2.27855 32.2921 2.05078 32.5721 2.05078H37.4278C37.7077 2.05078 37.9355 2.27855 37.9355 2.55842V19.7423H32.0646V2.55842H32.0645ZM17.8656 10.6779C18.9596 9.81914 20.1526 9.08141 21.4234 8.48258V16.4716C21.4234 16.5655 21.3711 16.6497 21.2868 16.6912L18.2608 18.184C18.1601 18.2338 18.076 18.2051 18.0231 18.1724C17.9703 18.1396 17.9076 18.077 17.9076 17.9644V10.9669C17.9076 10.8664 17.8925 10.7696 17.8656 10.6779ZM10.7413 27.4902H22.4057C22.972 27.4902 23.4311 27.0311 23.4311 26.4648C23.4311 25.8985 22.972 25.4394 22.4057 25.4394H10.7413V25.2916C10.7413 20.3414 12.6885 15.8376 15.8568 12.5053V17.9646C15.8568 18.7634 16.2617 19.4923 16.9403 19.9142C17.3124 20.1455 17.7308 20.2623 18.1511 20.2623C18.4971 20.2621 18.8445 20.183 19.1681 20.0234L22.1942 18.5306C22.9837 18.1411 23.4742 17.3522 23.4742 16.4717V7.66227C25.3106 7.05264 27.2729 6.7215 29.3113 6.7215H30.0137V19.7423H29.7199C28.6115 19.7423 27.7097 20.6441 27.7097 21.7525V32.2349H10.7413V27.4902ZM59.0088 59.2364C59.0088 64.0407 55.1003 67.9492 50.296 67.9492H19.704C14.8997 67.9492 10.9912 64.0407 10.9912 59.2364V54.9937C12.335 56.3977 14.2252 57.2748 16.3175 57.2748C18.607 57.2748 20.7817 56.2127 22.135 54.4336C24.3228 51.5579 27.6471 49.9086 31.2553 49.9086H38.7447C42.3529 49.9086 45.6772 51.558 47.865 54.4336C49.2183 56.2126 51.3931 57.2748 53.6826 57.2748C55.775 57.2748 57.6651 56.3979 59.0089 54.9937V59.2364H59.0088ZM63.7123 37.4317C63.7123 38.2059 63.0824 38.8356 62.3083 38.8356H18.474C17.9077 38.8356 17.4486 39.2947 17.4486 39.861C17.4486 40.4273 17.9077 40.8864 18.474 40.8864H59.0088V49.8978C59.0088 52.8347 56.6193 55.224 53.6825 55.224C52.0297 55.224 50.4649 54.4644 49.497 53.1919C46.918 49.802 42.9989 47.8578 38.7447 47.8578H31.2553C27.001 47.8578 23.082 49.802 20.5029 53.1919C19.5349 54.4644 17.9703 55.224 16.3175 55.224C13.3807 55.224 10.9912 52.8347 10.9912 49.8978V40.8864H14.3726C14.9388 40.8864 15.3979 40.4273 15.3979 39.861C15.3979 39.2947 14.9388 38.8356 14.3726 38.8356H7.69166C6.91756 38.8356 6.28769 38.2059 6.28769 37.4317V34.2858H63.7123V37.4317Z" fill="black"/>
</g>
<defs>
<clipPath id="clip0">
<rect width="70" height="70" fill="white"/>
</clipPath>
</defs>
</svg>
