<svg width="70" height="70" viewBox="0 0 70 70" fill="none" xmlns="http://www.w3.org/2000/svg">
<g clip-path="url(#clip0)">
<path d="M65.73 15.19C64.7325 16.0697 64.1628 17.3368 64.1666 18.6667V39.6667C64.1628 40.9538 63.1204 41.9962 61.8333 42H8.16663C6.87956 41.9962 5.83714 40.9538 5.83329 39.6667V18.6667C5.83716 17.3368 5.26742 16.0697 4.26996 15.19C5.41932 14.4099 6.77752 13.9951 8.16663 14H61.8333C63.2224 13.9951 64.5806 14.4099 65.73 15.19Z" fill="white"/>
<path d="M49 4.6665H21C19.7114 4.6665 18.6667 5.71117 18.6667 6.99984C18.6667 8.2885 19.7114 9.33317 21 9.33317H49C50.2887 9.33317 51.3334 8.2885 51.3334 6.99984C51.3334 5.71117 50.2887 4.6665 49 4.6665Z" fill="#F2BC18"/>
<path d="M38.5 40.8333V46.6667H31.5V40.8333C31.5038 39.5463 32.5463 38.5038 33.8333 38.5H36.1667C37.4537 38.5038 38.4961 39.5463 38.5 40.8333Z" fill="#F2BC18"/>
<path d="M40.81 36.9136C40.5767 40.9736 38.5 42.1986 38.5 45.5002V40.8336C38.4962 39.5465 37.4538 38.5041 36.1667 38.5002H33.8334C32.5463 38.5041 31.5039 39.5465 31.5 40.8336V45.5002C31.5 42.0002 29.1667 40.8336 29.1667 36.1669C29.1664 34.5528 29.835 33.0107 31.0133 31.9075C32.1916 30.8043 33.7744 30.2387 35.385 30.3453C38.6726 30.7063 41.0766 33.617 40.81 36.9136Z" fill="#F2BC18"/>
<path d="M38.5 51.3335V57.1668C38.5 59.0998 36.933 60.6668 35 60.6668C33.067 60.6668 31.5 59.0998 31.5 57.1668V51.3335H38.5Z" fill="#F2BC18"/>
<path d="M38.5 46.6665H31.5C30.8556 46.6665 30.3333 47.1888 30.3333 47.8332V50.1665C30.3333 50.8108 30.8556 51.3332 31.5 51.3332H38.5C39.1443 51.3332 39.6667 50.8108 39.6667 50.1665V47.8332C39.6667 47.1888 39.1443 46.6665 38.5 46.6665Z" fill="#F2BC18"/>
<path d="M61.8333 12.8333H56.6242L52.458 6.5835C52.2509 4.82911 50.7666 3.50552 49 3.5H21C19.2334 3.50552 17.7491 4.82911 17.542 6.5835L13.3758 12.8333H8.16667C3.65847 12.8385 0.00514341 16.4918 0 21V60.6667C0.00385714 63.8867 2.61327 66.4961 5.83333 66.5H64.1667C67.3867 66.4961 69.9961 63.8867 70 60.6667V21C69.9949 16.4918 66.3415 12.8385 61.8333 12.8333ZM21 5.83333H49C49.6443 5.83333 50.1667 6.35567 50.1667 7C50.1667 7.64433 49.6443 8.16667 49 8.16667H21C20.3557 8.16667 19.8333 7.64433 19.8333 7C19.8333 6.35567 20.3557 5.83333 21 5.83333ZM18.4672 9.40217C19.124 10.1016 20.0405 10.4989 21 10.5H49C49.9595 10.4989 50.876 10.1016 51.5328 9.40217L53.8207 12.8333H16.1793L18.4672 9.40217ZM61.8333 15.1667C62.5413 15.1712 63.2424 15.3056 63.9018 15.5633C63.3143 16.4919 63.0016 17.5678 63 18.6667V39.6667C63 40.311 62.4777 40.8333 61.8333 40.8333H41.1145C41.6133 39.6067 41.9042 38.3056 41.9755 36.9833C42.3055 33.0399 39.4054 29.5632 35.4667 29.1807C33.5315 29.0443 31.6277 29.7242 30.2167 31.0555C28.8054 32.3813 28.0035 34.2304 28 36.1667C27.981 37.7654 28.2808 39.3518 28.882 40.8333H8.16667C7.52233 40.8333 7 40.311 7 39.6667V18.6667C6.99835 17.5678 6.68569 16.4919 6.09817 15.5633C6.75757 15.3056 7.4587 15.1712 8.16667 15.1667H61.8333ZM30.3333 36.1667C30.3331 34.8749 30.8682 33.6408 31.8114 32.7582C32.7546 31.8756 34.0214 31.4234 35.3103 31.5093C37.9535 31.8358 39.8669 34.1917 39.6445 36.8457C39.6043 37.6377 39.4652 38.4216 39.2303 39.179C38.626 38.0474 37.4495 37.3386 36.1667 37.3333H33.8333C32.5512 37.3379 31.3749 38.0453 30.7697 39.1755C30.4679 38.2015 30.3207 37.1862 30.3333 36.1667ZM37.3333 45.5H32.6667V40.8333C32.6667 40.189 33.189 39.6667 33.8333 39.6667H36.1667C36.811 39.6667 37.3333 40.189 37.3333 40.8333V45.5ZM38.5 47.8333V50.1667H31.5V47.8333H38.5ZM32.6667 52.5H37.3333V57.1667C37.3333 58.4553 36.2887 59.5 35 59.5C33.7113 59.5 32.6667 58.4553 32.6667 57.1667V52.5ZM67.6667 60.6667C67.6667 62.5997 66.0997 64.1667 64.1667 64.1667H5.83333C3.90034 64.1667 2.33333 62.5997 2.33333 60.6667V21C2.33473 19.421 2.97875 17.9105 4.11717 16.8163C4.47154 17.3688 4.66207 18.0104 4.66667 18.6667V39.6667C4.66667 41.5997 6.23367 43.1667 8.16667 43.1667H29.8667C30.1708 43.9072 30.3293 44.6995 30.3333 45.5V45.8243C29.6138 46.2378 29.1692 47.0035 29.1667 47.8333V50.1667C29.1692 50.9966 29.6138 51.7622 30.3333 52.1757V57.1667C30.3333 59.744 32.4227 61.8333 35 61.8333C37.5773 61.8333 39.6667 59.744 39.6667 57.1667V52.1757C40.3862 51.7622 40.8308 50.9966 40.8333 50.1667V47.8333C40.8308 47.0035 40.3862 46.2378 39.6667 45.8243V45.5C39.671 44.6995 39.8294 43.9073 40.1333 43.1667H61.8333C63.7663 43.1667 65.3333 41.5997 65.3333 39.6667V18.6667C65.3379 18.0104 65.5285 17.3688 65.8828 16.8163C67.0212 17.9105 67.6653 19.421 67.6667 21V60.6667Z" fill="black"/>
<path d="M8.16669 59.5H5.83335C5.18902 59.5 4.66669 60.0223 4.66669 60.6667C4.66669 61.311 5.18902 61.8333 5.83335 61.8333H8.16669C8.81102 61.8333 9.33336 61.311 9.33336 60.6667C9.33336 60.0223 8.81102 59.5 8.16669 59.5Z" fill="black"/>
<path d="M26.8333 59.5H12.8333C12.189 59.5 11.6666 60.0223 11.6666 60.6667C11.6666 61.311 12.189 61.8333 12.8333 61.8333H26.8333C27.4776 61.8333 28 61.311 28 60.6667C28 60.0223 27.4776 59.5 26.8333 59.5Z" fill="black"/>
<path d="M64.1667 59.5H61.8334C61.189 59.5 60.6667 60.0223 60.6667 60.6667C60.6667 61.311 61.189 61.8333 61.8334 61.8333H64.1667C64.811 61.8333 65.3334 61.311 65.3334 60.6667C65.3334 60.0223 64.811 59.5 64.1667 59.5Z" fill="black"/>
<path d="M57.1667 59.5H43.1667C42.5223 59.5 42 60.0223 42 60.6667C42 61.311 42.5223 61.8333 43.1667 61.8333H57.1667C57.811 61.8333 58.3333 61.311 58.3333 60.6667C58.3333 60.0223 57.811 59.5 57.1667 59.5Z" fill="black"/>
</g>
<defs>
<clipPath id="clip0">
<rect width="70" height="70" fill="white"/>
</clipPath>
</defs>
</svg>
