<svg width="70" height="70" viewBox="0 0 70 70" fill="none" xmlns="http://www.w3.org/2000/svg">
<g clip-path="url(#clip0)">
<path d="M22.3306 1.02539H47.6698V5.7035H22.3306V1.02539Z" fill="#F2BC18"/>
<path d="M28.7305 51.3767H41.2698V57.1285H28.7305V51.3767Z" fill="white"/>
<path d="M44.3588 63.121H25.6412C24.9731 63.121 24.4314 62.5793 24.4314 61.9111V58.338C24.4314 57.6699 24.9731 57.1282 25.6412 57.1282H44.3587C45.0268 57.1282 45.5685 57.6699 45.5685 58.338V61.9111C45.5687 62.5793 45.027 63.121 44.3588 63.121Z" fill="#F2BC18"/>
<path d="M28.7305 63.4949V68.9747H41.2698V63.66" fill="white"/>
<path d="M53.1176 30.594H51.5104V18.6675H52.665C54.781 18.6675 56.5679 20.2388 56.8386 22.3373L57.2914 25.8475C57.616 28.3645 55.6555 30.594 53.1176 30.594Z" fill="white"/>
<path d="M19.0824 36.2684H13.0877C12.6368 36.2684 12.2713 35.9029 12.2713 35.452V29.8527C12.2713 29.4018 12.6368 29.0364 13.0877 29.0364H19.0824V36.2684Z" fill="white"/>
<path d="M19.0824 24.6307H13.0877C12.6368 24.6307 12.2713 24.2652 12.2713 23.8143V18.215C12.2713 17.7641 12.6368 17.3987 13.0877 17.3987H19.0824V24.6307Z" fill="white"/>
<path d="M50.918 35.4175H56.9127C57.3636 35.4175 57.729 35.7829 57.729 36.2338V39.6472C57.729 40.0981 57.3636 40.4635 56.9127 40.4635H50.918V35.4175Z" fill="white"/>
<path d="M19.937 51.3766H22.14V1.02539H20.8186C19.1162 1.02539 17.7185 2.37152 17.6545 4.07271L16.0273 47.317C15.9439 49.5339 17.7185 51.3766 19.937 51.3766Z" fill="white"/>
<path d="M49.6822 51.3766H47.4792V1.02539H48.8006C50.5031 1.02539 51.9007 2.37152 51.9647 4.07271L53.5919 47.317C53.6753 49.5339 51.9007 51.3766 49.6822 51.3766Z" fill="white"/>
<path d="M22.14 41.3613H47.4791V51.3765H22.14V41.3613Z" fill="white"/>
<path d="M29.9786 36.2683H39.6407V41.3612H29.9786V36.2683Z" fill="white"/>
<path d="M22.14 13.9729H26.7036V33.1202H22.14V13.9729Z" fill="#F2BC18"/>
<path d="M47.4792 33.1201H42.9156V13.9728H47.4792V33.1201Z" fill="#F2BC18"/>
<path d="M40.9003 36.2685H28.719C27.6061 36.2685 26.7037 35.3663 26.7037 34.2533V12.3075C26.7037 11.1946 27.6059 10.2922 28.719 10.2922H40.9003C42.0132 10.2922 42.9156 11.1944 42.9156 12.3075V34.2533C42.9156 35.3663 42.0134 36.2685 40.9003 36.2685Z" fill="#F2BC18"/>
<path d="M43.5681 1.02539H47.6697V5.7035H43.5681V1.02539Z" fill="#F2BC18"/>
<path d="M37.1682 51.3767H41.2697V57.1285H37.1682V51.3767Z" fill="white"/>
<path d="M44.3589 57.1282H40.2574C40.9255 57.1282 41.4672 57.6699 41.4672 58.338V61.9111C41.4672 62.5793 40.9255 63.121 40.2574 63.121H44.3589C45.0271 63.121 45.5688 62.5793 45.5688 61.9111V58.338C45.5688 57.6697 45.0271 57.1282 44.3589 57.1282Z" fill="#F2BC18"/>
<path d="M37.1682 63.6599H41.2697V68.9744H37.1682V63.6599Z" fill="white"/>
<path d="M43.3777 41.3613H47.1794V51.3765H43.3777V41.3613Z" fill="white"/>
<path d="M40.9005 10.2922H36.7989C37.9118 10.2922 38.8141 11.1944 38.8141 12.3075V34.2533C38.8141 35.3662 37.9119 36.2685 36.7989 36.2685H40.9005C42.0133 36.2685 42.9157 35.3663 42.9157 34.2533V12.3073C42.9157 11.1944 42.0135 10.2922 40.9005 10.2922Z" fill="#F2BC18"/>
<path d="M37.0048 16.2629H32.6149C31.9391 16.2629 31.3912 15.715 31.3912 15.0392V10.2922H38.2284V15.0392C38.2284 15.715 37.6806 16.2629 37.0048 16.2629Z" fill="white"/>
<path d="M37.4128 27.4576C38.623 26.0095 38.4302 23.8544 36.982 22.6442C35.5339 21.4339 33.3788 21.6268 32.1686 23.0749C30.9583 24.5231 31.1512 26.6781 32.5993 27.8884C34.0475 29.0986 36.2025 28.9058 37.4128 27.4576Z" fill="white"/>
<path d="M56.9126 34.3921H54.1317L54.0244 31.5403C55.296 31.3198 56.4271 30.6454 57.2349 29.6166C58.108 28.5048 58.4891 27.1197 58.308 25.7164L57.8552 22.2061C57.5561 19.887 55.7505 18.0775 53.5039 17.7112L52.9893 4.03416C52.9042 1.77201 51.0644 0 48.8006 0H20.8187C18.5549 0 16.7151 1.77201 16.6299 4.03416L16.1656 16.3733H13.0876C12.0721 16.3733 11.2459 17.1995 11.2459 18.215V23.8144C11.2459 24.8299 12.0721 25.6562 13.0876 25.6562H15.8164L15.7278 28.0111H13.0878C12.0722 28.0111 11.246 28.8373 11.246 29.8528V35.4521C11.246 36.4677 12.0722 37.2939 13.0878 37.2939H15.3786L15.0029 47.2784C14.9519 48.6317 15.4413 49.914 16.3807 50.8895C17.32 51.8648 18.5832 52.4021 19.9374 52.4021H27.7053V56.1031H25.6417C24.4092 56.1031 23.4065 57.1058 23.4065 58.3383V61.9114C23.4065 63.144 24.4092 64.1467 25.6417 64.1467H27.7053V68.9746C27.7053 69.5409 28.1644 70 28.7307 70H41.27C41.8363 70 42.2954 69.5409 42.2954 68.9746V64.1465H44.359C45.5916 64.1465 46.5943 63.1438 46.5943 61.9113V58.3382C46.5943 57.1056 45.5916 56.1029 44.359 56.1029H42.2954V52.402H49.6825C51.0367 52.402 52.2997 51.8648 53.2391 50.8895C54.1785 49.9141 54.6678 48.6317 54.6169 47.2784L54.3991 41.4889H56.913C57.9285 41.4889 58.7547 40.6628 58.7547 39.6472V36.2339C58.7543 35.2183 57.9281 34.3921 56.9126 34.3921ZM55.8214 22.4684L56.2742 25.9786C56.3843 26.832 56.1527 27.6742 55.6221 28.3499C55.1898 28.9004 54.605 29.2809 53.946 29.4567L53.5839 19.8309C54.7554 20.1867 55.6582 21.2019 55.8214 22.4684ZM23.1655 50.3512V42.3869H46.4538V50.3512H23.1655ZM23.1655 40.336V34.1455H25.6783V34.2532C25.6783 35.9298 27.0424 37.2939 28.719 37.2939H28.9533V40.336H23.1655ZM25.6783 32.0947H23.1655V14.9982H25.6783V32.0947ZM32.4164 11.3177H37.2028V15.0393C37.2028 15.1487 37.1139 15.2376 37.0045 15.2376H32.6146C32.5053 15.2376 32.4164 15.1486 32.4164 15.0393V11.3177ZM32.6146 17.2884H37.0045C38.2447 17.2884 39.2536 16.2794 39.2536 15.0393V11.3177H40.9003C41.4461 11.3177 41.89 11.7616 41.89 12.3076V34.2534C41.89 34.7992 41.446 35.2432 40.9003 35.2432H28.7188C28.1731 35.2432 27.729 34.7993 27.729 34.2534V12.3074C27.729 11.7616 28.1731 11.3176 28.7188 11.3176H30.3655V15.0392C30.3656 16.2794 31.3746 17.2884 32.6146 17.2884ZM31.0041 37.2939H38.6152V40.336H31.0041V37.2939ZM40.666 37.2939H40.9003C42.5769 37.2939 43.9408 35.9298 43.9408 34.2532V34.1455H46.4537V40.336H40.6659V37.2939H40.666ZM46.4538 32.0947H43.941V14.9982H46.4538V32.0947ZM46.4538 4.67811H31.4553C30.889 4.67811 30.4299 5.13721 30.4299 5.7035C30.4299 6.26978 30.889 6.72889 31.4553 6.72889H46.454V12.9474H43.9411V12.3074C43.9411 10.6308 42.5771 9.2668 40.9006 9.2668H28.7191C27.0425 9.2668 25.6785 10.6308 25.6785 12.3074V12.9474H23.1656V6.72889H27.3538C27.9201 6.72889 28.3792 6.26978 28.3792 5.7035C28.3792 5.13721 27.9201 4.67811 27.3538 4.67811H23.1656V2.05078H46.454V4.67811H46.4538ZM13.2967 23.6053V18.4239H16.0885L15.8935 23.6053H13.2967ZM13.2967 35.2431V30.0617H15.6506L15.4556 35.243H13.2967V35.2431ZM21.1147 50.3512H19.9371C19.1454 50.3512 18.4068 50.0371 17.8576 49.4668C17.3084 48.8965 17.0224 48.1467 17.0521 47.3555L18.6792 4.11113C18.7226 2.95586 19.6625 2.05078 20.8187 2.05078H21.1147V50.3512ZM40.2444 67.9492H29.7558V64.1465H40.2444V67.9492ZM40.2444 56.1029H36.3987C35.8324 56.1029 35.3733 56.562 35.3733 57.1283C35.3733 57.6946 35.8324 58.1537 36.3987 58.1537H44.3588C44.4605 58.1537 44.5432 58.2364 44.5432 58.3382V61.9113C44.5432 62.013 44.4605 62.0957 44.3588 62.0957H25.6414C25.5397 62.0957 25.457 62.013 25.457 61.9113V58.3382C25.457 58.2364 25.5397 58.1537 25.6414 58.1537H32.2973C32.8636 58.1537 33.3227 57.6946 33.3227 57.1283C33.3227 56.562 32.8636 56.1029 32.2973 56.1029H29.756V52.402H40.2445V56.1029H40.2444ZM51.7617 49.4668C51.2123 50.037 50.4739 50.3511 49.6822 50.3511H48.5046V2.05078H48.8006C49.9569 2.05078 50.8967 2.95586 50.94 4.11113L52.5672 47.3554C52.597 48.1467 52.3109 48.8965 51.7617 49.4668ZM56.7035 39.4382H54.3216L54.2089 36.4429H56.7037V39.4382H56.7035Z" fill="black"/>
<path d="M34.8097 29.7127C37.2601 29.7127 39.2536 27.719 39.2536 25.2688C39.2536 22.8183 37.2601 20.8247 34.8097 20.8247C32.3593 20.8247 30.3657 22.8182 30.3657 25.2688C30.3657 27.719 32.3593 29.7127 34.8097 29.7127ZM34.8097 22.8754C36.1293 22.8754 37.2028 23.9489 37.2028 25.2686C37.2028 26.5882 36.1293 27.6617 34.8097 27.6617C33.4901 27.6617 32.4164 26.5881 32.4164 25.2686C32.4164 23.949 33.4901 22.8754 34.8097 22.8754Z" fill="black"/>
<path d="M33.1268 45.3435H29.7835C29.2172 45.3435 28.7581 45.8026 28.7581 46.3689C28.7581 46.9352 29.2172 47.3943 29.7835 47.3943H33.1268C33.6931 47.3943 34.1522 46.9352 34.1522 46.3689C34.1522 45.8026 33.6931 45.3435 33.1268 45.3435Z" fill="black"/>
<path d="M40.2167 45.3435H36.8734C36.3071 45.3435 35.848 45.8026 35.848 46.3689C35.848 46.9352 36.3071 47.3943 36.8734 47.3943H40.2167C40.783 47.3943 41.2421 46.9352 41.2421 46.3689C41.2421 45.8026 40.783 45.3435 40.2167 45.3435Z" fill="black"/>
</g>
<defs>
<clipPath id="clip0">
<rect width="70" height="70" fill="white"/>
</clipPath>
</defs>
</svg>
