<svg width="70" height="70" viewBox="0 0 70 70" fill="none" xmlns="http://www.w3.org/2000/svg">
<g clip-path="url(#clip0)">
<path fill-rule="evenodd" clip-rule="evenodd" d="M2.08893 66.7036H67.9149C68.4962 66.7036 68.9769 66.223 68.9769 65.6417V43.1597L35.0388 43.1743L1.02704 43.1598V65.6418C1.02704 66.223 1.50364 66.7036 2.08893 66.7036Z" fill="white"/>
<path fill-rule="evenodd" clip-rule="evenodd" d="M31.8143 3.61377H38.1857C39.2824 3.61377 40.1777 4.509 40.1777 5.60193V13.8297C40.1777 14.9264 39.2824 15.8217 38.1857 15.8217H31.8143C30.7213 15.8217 29.8261 14.9264 29.8261 13.8297V5.60193C29.8261 4.509 30.7213 3.61377 31.8143 3.61377Z" fill="#F2BC18"/>
<path fill-rule="evenodd" clip-rule="evenodd" d="M5.37931 50.8022L7.56899 49.3449C8.1387 48.9651 8.77048 48.9651 9.34019 49.3449L11.5299 50.8022C12.1615 51.2247 12.3554 51.802 12.2662 52.4454L11.2316 59.7469C11.1462 60.3553 10.7239 60.801 10.0186 60.801H6.89073C6.2163 60.801 5.78618 60.5259 5.67763 59.7469L4.64294 52.4454C4.54218 51.7401 4.80563 51.1821 5.37931 50.8022ZM58.474 59.061L60.6598 60.5181C61.2295 60.8979 61.8651 60.8979 62.4346 60.5181L64.6206 59.061C65.2561 58.6385 65.4498 58.0611 65.357 57.4178L64.326 50.1163C64.2408 49.5077 63.8144 49.062 63.1091 49.062H59.9816C59.3072 49.062 58.8771 49.3373 58.7685 50.1163L57.7377 57.4178C57.6369 58.1232 57.9005 58.6812 58.474 59.061ZM37.236 59.061L39.4219 60.5181C39.9914 60.8979 40.627 60.8979 41.1969 60.5181L43.3826 59.061C44.0181 58.6385 44.2119 58.0611 44.119 57.4178L43.0881 50.1163C43.0028 49.5077 42.5765 49.062 41.8751 49.062H38.7474C38.073 49.062 37.6429 49.3373 37.5305 50.1163L36.4996 57.4178C36.399 58.1232 36.6625 58.6812 37.236 59.061ZM15.9983 59.061L18.1879 60.5181C18.7538 60.8979 19.3893 60.8979 19.959 60.5181L22.1449 59.061C22.7805 58.6385 22.9742 58.0611 22.8852 57.4178L21.8504 50.1163C21.7651 49.5077 21.3427 49.062 20.6374 49.062H17.5098C16.8355 49.062 16.4053 49.3373 16.293 50.1163L15.2622 57.4178C15.1611 58.1232 15.4247 58.6812 15.9983 59.061ZM47.8551 50.8022L50.0408 49.3449C50.6105 48.9651 51.246 48.9651 51.8157 49.3449L54.0016 50.8022C54.6372 51.2247 54.8309 51.802 54.7379 52.4454L53.7071 59.7469C53.6219 60.3553 53.1956 60.801 52.494 60.801H49.3625C48.6922 60.801 48.2581 60.5259 48.1496 59.7469L47.1187 52.4454C47.018 51.7401 47.2816 51.1821 47.8551 50.8022ZM26.6172 50.8022L28.8029 49.3449C29.3726 48.9651 30.0082 48.9651 30.5779 49.3449L32.7639 50.8022C33.3994 51.2247 33.5933 51.802 33.5041 52.4454L32.4694 59.7469C32.3841 60.3553 31.9577 60.801 31.2562 60.801H28.1288C27.4543 60.801 27.0242 60.5259 26.9118 59.7469L25.881 52.4454C25.7801 51.7401 26.0435 51.1821 26.6172 50.8022Z" fill="#F2BC18"/>
<path d="M2.05023 44.1868V65.6766H67.9499V44.1868H36.027V45.8803C36.027 46.45 35.5659 46.9073 35 46.9073C34.4341 46.9073 33.9769 46.45 33.9769 45.8803V44.1868H10.3168C9.75092 44.1868 9.28976 43.7294 9.28976 43.1597C9.28976 42.5939 9.75092 42.1365 10.3168 42.1365H33.9769V33.7539H2.05023V35.684H3.54238C4.10812 35.684 4.56941 36.1413 4.56941 36.707C4.56941 37.2729 4.10826 37.7341 3.54238 37.7341H2.05023V42.1367H5.67C6.23588 42.1367 6.69703 42.594 6.69703 43.1599C6.69703 43.7296 6.23588 44.1869 5.67 44.1869H2.05023V44.1868ZM4.81728 49.9496L7.00301 48.4923C7.46033 48.1862 7.95252 48.035 8.4525 48.035C8.95644 48.035 9.44863 48.1861 9.90596 48.4923L12.0917 49.9496C12.5683 50.2635 12.89 50.6511 13.0877 51.0928C13.3008 51.5658 13.3513 52.0696 13.2776 52.585L12.2467 59.8865C12.1652 60.4445 11.9134 60.9406 11.5065 61.2933C11.1189 61.6304 10.6189 61.8281 10.0183 61.8281H6.89076C6.32488 61.8281 5.8327 61.6886 5.42582 61.3591C5.01881 61.0297 4.75535 60.553 4.66238 59.8865L3.63152 52.585C3.554 52.0425 3.6199 51.5425 3.82143 51.0928C4.0306 50.6317 4.36393 50.2481 4.81728 49.9496ZM8.13094 50.1978L5.94521 51.6549C5.81725 51.7402 5.73207 51.8292 5.68941 51.9261C5.64676 52.0229 5.63514 52.1509 5.65838 52.306C5.74752 52.9493 6.70865 59.7663 6.71631 59.7741C6.7241 59.7819 9.7315 59.7779 10.0183 59.7779C10.0997 59.7779 10.1463 59.7663 10.1656 59.7469C10.1927 59.7275 10.2082 59.6771 10.2199 59.6073L11.2507 52.3058C11.274 52.1547 11.2662 52.0229 11.2197 51.926C11.1809 51.8329 11.0957 51.7439 10.9639 51.6548L8.7742 50.1976C8.66564 50.1239 8.55326 50.0852 8.4525 50.0852C8.35174 50.0852 8.24318 50.1241 8.13094 50.1978ZM59.0399 58.2084L61.2257 59.6655C61.338 59.7392 61.4466 59.7779 61.5474 59.7779C61.6481 59.7779 61.7567 59.7392 61.8691 59.6655L64.0548 58.2084C64.1904 58.1192 64.2719 58.0301 64.3143 57.9371C64.3571 57.8403 64.3649 57.7085 64.3456 57.5573L63.3106 50.2559C63.3028 50.1861 63.2836 50.1357 63.2603 50.1163C63.2409 50.0968 63.1906 50.0852 63.1092 50.0852C62.8224 50.0852 59.8191 50.0814 59.8112 50.0891C59.7995 50.0968 58.8386 56.9139 58.7493 57.5573C58.726 57.7124 58.7376 57.8402 58.7841 57.9371C58.8268 58.0339 58.912 58.1232 59.0399 58.2084ZM60.094 61.3708L57.9083 59.9137C57.455 59.6152 57.1216 59.2316 56.9161 58.7704C56.7146 58.3209 56.6449 57.8209 56.7224 57.2784L57.7571 49.9769C57.8502 49.3103 58.1098 48.8336 58.5207 48.5042C58.9276 48.1749 59.4159 48.0353 59.9817 48.0353H63.1091C63.7098 48.0353 64.2136 48.233 64.5975 48.5701C65.0083 48.9227 65.2602 49.4189 65.3377 49.9769L66.3724 57.2784C66.446 57.7938 66.3919 58.2977 66.1786 58.7704C65.9848 59.2122 65.6593 59.5998 65.1865 59.9137L62.9966 61.3708C62.5392 61.6771 62.0472 61.8283 61.5471 61.8283C61.0475 61.8281 60.5515 61.6769 60.094 61.3708ZM37.8019 58.2084L39.9878 59.6655C40.1 59.7392 40.2086 59.7779 40.3095 59.7779C40.4101 59.7779 40.5186 59.7392 40.6312 59.6655L42.817 58.2084C42.9527 58.1192 43.038 58.0301 43.0767 57.9371C43.1231 57.8403 43.1309 57.7085 43.1077 57.5573L42.073 50.2559C42.0536 50.1086 42.0226 50.0854 41.8754 50.0854C41.5886 50.0854 38.5811 50.0815 38.5734 50.0892C38.5618 50.097 37.6045 56.9141 37.5114 57.5575C37.492 57.7125 37.5036 57.8403 37.5464 57.9373C37.5888 58.0339 37.6741 58.1232 37.8019 58.2084ZM38.86 61.3708L36.6702 59.9137C36.2208 59.6152 35.8835 59.2316 35.6781 58.7704C35.4765 58.3209 35.4069 57.8209 35.4843 57.2784L36.5189 49.9769C36.612 49.3103 36.8755 48.8336 37.2825 48.5042C37.6895 48.1749 38.1816 48.0353 38.7475 48.0353H41.8752C42.4719 48.0353 42.9758 48.233 43.3594 48.5701C43.7702 48.9227 44.0221 49.4189 44.0996 49.9769L45.1343 57.2784C45.2078 57.7938 45.1537 58.2977 44.9444 58.7704C44.7467 59.2122 44.4211 59.5998 43.9484 59.9137L41.7626 61.3708C41.3052 61.6771 40.8092 61.8283 40.3092 61.8283C39.8095 61.8281 39.3173 61.6769 38.86 61.3708ZM14.4402 55.9257C14.5178 55.3678 15.0332 54.9762 15.5913 55.0537C16.1532 55.1312 16.5446 55.6467 16.4671 56.2048L16.2732 57.5573C16.2538 57.7124 16.2654 57.8402 16.3081 57.9371C16.3507 58.0339 16.4361 58.1232 16.5639 58.2084L18.7497 59.6655C18.8621 59.7392 18.9705 59.7779 19.0713 59.7779C19.1721 59.7779 19.2806 59.7392 19.393 59.6655L21.5828 58.2084C21.7145 58.1192 21.7998 58.0301 21.8386 57.9371C21.8851 57.8403 21.8929 57.7085 21.8697 57.5573L20.8388 50.2559C20.8272 50.1861 20.8117 50.1357 20.7847 50.1163C20.7653 50.0968 20.7188 50.0852 20.6374 50.0852C20.3506 50.0852 17.3432 50.0814 17.3354 50.0891C17.3276 50.0968 17.1339 51.4765 17.1184 51.6083C17.0409 52.1664 16.5216 52.5576 15.9636 52.4803C15.4055 52.4027 15.014 51.8873 15.0916 51.3254L15.2815 49.9767C15.3744 49.31 15.6379 48.8333 16.0449 48.5039C16.4518 48.1746 16.944 48.035 17.5098 48.035H20.6374C21.2382 48.035 21.738 48.2327 22.1216 48.5698C22.5325 48.9224 22.7843 49.4186 22.8657 49.9767L23.8967 57.2781C23.9703 57.7936 23.9199 58.2974 23.7068 58.7702C23.5091 59.2119 23.1875 59.5995 22.7108 59.9134L20.525 61.3705C20.0677 61.6768 19.5755 61.828 19.0717 61.828C18.5717 61.828 18.0795 61.6768 17.6222 61.3705L15.4325 59.9134C14.983 59.6149 14.6497 59.2313 14.4404 58.7702C14.2388 58.3206 14.1729 57.8206 14.2465 57.2781L14.4402 55.9257ZM52.8855 58.2549C52.9631 57.6968 53.4786 57.3053 54.0367 57.3829C54.5985 57.4604 54.9901 57.9758 54.9125 58.5377L54.7187 59.8865C54.6413 60.4445 54.3893 60.9367 53.9785 61.2933C53.5947 61.6304 53.091 61.8281 52.494 61.8281H49.3626C48.7967 61.8281 48.3085 61.6886 47.9016 61.3591C47.4908 61.0297 47.2311 60.553 47.1382 59.8865L46.1035 52.585C46.026 52.0425 46.0957 51.5425 46.2972 51.0928C46.5027 50.6317 46.8359 50.2481 47.2894 49.9496L49.4791 48.4923C49.9324 48.1862 50.4286 48.035 50.9286 48.035C51.4284 48.035 51.9245 48.1861 52.3819 48.4923L54.5677 49.9496C55.0406 50.2635 55.3662 50.6511 55.5599 51.0928C55.7732 51.5658 55.8273 52.0696 55.7536 52.585L55.5637 53.9376C55.4863 54.4956 54.9669 54.8871 54.4089 54.8095C53.8469 54.732 53.4594 54.2166 53.5369 53.6585L53.7268 52.306C53.7462 52.1549 53.7384 52.0231 53.6957 51.9261C53.6532 51.833 53.5717 51.744 53.4361 51.6549L51.2502 50.1978C51.138 50.1241 51.0294 50.0854 50.9287 50.0854C50.8279 50.0854 50.7195 50.1242 50.607 50.1978L48.4213 51.6549C48.2933 51.7402 48.208 51.8292 48.1655 51.9261C48.119 52.0229 48.1072 52.1509 48.1306 52.306C48.2236 52.9493 49.1809 59.7663 49.1925 59.7741C49.2003 59.7819 52.2037 59.7779 52.4944 59.7779C52.5718 59.7779 52.6224 59.7663 52.6418 59.7469C52.665 59.7275 52.6844 59.6771 52.6921 59.6073L52.8855 58.2549ZM26.0513 49.9496L28.241 48.4923C28.6984 48.1862 29.1905 48.035 29.6905 48.035C30.1945 48.035 30.6865 48.1861 31.1438 48.4923L33.3298 49.9496C33.8026 50.2635 34.1281 50.6511 34.3257 51.0928C34.535 51.5658 34.5893 52.0696 34.5157 52.585L33.4847 59.8865C33.4034 60.4445 33.1514 60.9406 32.7407 61.2933C32.3571 61.6304 31.8571 61.8281 31.2564 61.8281H28.1289C27.563 61.8281 27.0709 61.6886 26.664 61.3591C26.257 61.0297 25.9935 60.553 25.9004 59.8865L24.8657 52.585C24.7922 52.0425 24.8579 51.5425 25.0595 51.0928C25.2647 50.6317 25.6018 50.2481 26.0513 49.9496ZM29.3688 50.1978L27.1831 51.6549C27.0551 51.7402 26.97 51.8292 26.9273 51.9261C26.8848 52.0229 26.8732 52.1509 26.8924 52.306C26.9854 52.9493 27.9427 59.7663 27.9543 59.7741C27.9621 59.7819 30.9694 59.7779 31.2562 59.7779C31.3337 59.7779 31.3842 59.7663 31.4035 59.7469C31.4267 59.7275 31.4461 59.6771 31.4578 59.6073L32.4887 52.3058C32.512 52.1547 32.5042 52.0229 32.4576 51.926C32.4189 51.8329 32.3337 51.7439 32.2019 51.6548L30.0122 50.1976C29.7913 50.0504 29.5936 50.0504 29.3688 50.1978ZM26.5048 10.5548C26.8652 10.9889 26.8033 11.6361 26.3692 11.9965C25.9312 12.3569 25.2879 12.2949 24.9275 11.8569C24.6873 11.5662 24.4896 11.2291 24.3578 10.8531C24.226 10.4889 24.1563 10.1091 24.1563 9.71764C24.1563 9.32621 24.226 8.94258 24.3578 8.58205C24.4896 8.20608 24.6873 7.8651 24.9275 7.57444C25.2879 7.14035 25.9313 7.07842 26.3692 7.43881C26.8033 7.7992 26.8652 8.44643 26.5048 8.88051C26.4041 9.00069 26.3264 9.13248 26.2799 9.27194C26.2296 9.40373 26.2062 9.55098 26.2062 9.71764C26.2062 9.88034 26.2296 10.0315 26.2799 10.1633C26.3266 10.3029 26.4041 10.4347 26.5048 10.5548ZM45.0764 11.857C44.7159 12.2949 44.0688 12.357 43.6347 11.9966C43.1968 11.6362 43.1348 10.989 43.4952 10.5549C43.5958 10.4349 43.6734 10.3031 43.7237 10.1635C43.7704 10.0317 43.7974 9.88061 43.7974 9.71778C43.7974 9.55112 43.7704 9.40387 43.7237 9.27207C43.6734 9.13262 43.5958 9.00082 43.4952 8.88065C43.1346 8.44657 43.1967 7.79934 43.6347 7.43895C44.0688 7.07856 44.7159 7.14049 45.0764 7.57457C45.3167 7.86524 45.5105 8.20635 45.646 8.58219C45.7779 8.94272 45.8477 9.32635 45.8477 9.71778C45.8477 10.1092 45.7779 10.489 45.646 10.8532C45.5105 11.2292 45.3167 11.5664 45.0764 11.857ZM49.4596 3.95084C49.0991 3.51293 49.1612 2.86953 49.5953 2.50914C50.0294 2.14875 50.6764 2.20686 51.037 2.64477C51.8431 3.61752 52.4865 4.73766 52.9283 5.96225C53.3546 7.14035 53.5832 8.40774 53.5832 9.71764C53.5832 11.0275 53.3546 12.291 52.9283 13.4729C52.4865 14.6978 51.8429 15.8176 51.037 16.7904C50.6764 17.2245 50.0294 17.2865 49.5953 16.926C49.1612 16.5656 49.0991 15.9184 49.4596 15.4843C50.1223 14.6822 50.6494 13.7714 51.0061 12.783C51.347 11.8335 51.533 10.8026 51.533 9.7175C51.533 8.63237 51.347 7.60151 51.0061 6.64803C50.6494 5.66393 50.1222 4.75311 49.4596 3.95084ZM46.4445 6.44282C46.0841 6.00873 46.146 5.36151 46.5801 5.00112C47.018 4.64059 47.6612 4.70266 48.0218 5.13674C48.5412 5.76455 48.9595 6.49313 49.2464 7.2876C49.5216 8.055 49.6727 8.87272 49.6727 9.71764C49.6727 10.5624 49.5216 11.3803 49.2464 12.1475C48.9595 12.942 48.5412 13.6668 48.0218 14.2984C47.6612 14.7325 47.018 14.7946 46.5801 14.434C46.146 14.0736 46.0841 13.4264 46.4445 12.9923C46.8243 12.535 47.1227 12.0156 47.3242 11.4577C47.5143 10.9228 47.6227 10.3377 47.6227 9.7175C47.6227 9.09735 47.5143 8.51219 47.3242 7.97352C47.1227 7.41953 46.8243 6.90014 46.4445 6.44282ZM18.963 2.64477C19.3236 2.20686 19.9706 2.14875 20.4047 2.50914C20.8426 2.86953 20.9047 3.51293 20.5443 3.95084C19.8777 4.75311 19.3506 5.66379 18.9979 6.64817C18.6529 7.60164 18.467 8.6325 18.467 9.71764C18.467 10.8028 18.6529 11.8336 18.9979 12.7831C19.3505 13.7715 19.8775 14.6823 20.5443 15.4844C20.9047 15.9185 20.8428 16.5657 20.4047 16.9261C19.9706 17.2865 19.3234 17.2246 18.963 16.7905C18.1571 15.8178 17.5135 14.6978 17.0756 13.473C16.6493 12.291 16.4168 11.0277 16.4168 9.71778C16.4168 8.40787 16.6493 7.14049 17.0756 5.96239C17.5135 4.73766 18.1569 3.61752 18.963 2.64477ZM21.9782 5.13688C22.3386 4.7028 22.9858 4.64073 23.4199 5.00125C23.8578 5.36164 23.9159 6.00887 23.5555 6.44295C23.1796 6.90028 22.8773 7.41953 22.6797 7.97379C22.486 8.51246 22.3813 9.09776 22.3813 9.71778C22.3813 10.3378 22.4859 10.9231 22.6797 11.4579C22.8773 12.016 23.1797 12.5353 23.5555 12.9926C23.9159 13.4267 23.8578 14.0739 23.4199 14.4343C22.9858 14.7948 22.3386 14.7328 21.9782 14.2987C21.459 13.6669 21.0403 12.9423 20.7575 12.1478C20.4786 11.3806 20.3312 10.5627 20.3312 9.71791C20.3312 8.87299 20.4784 8.05528 20.7575 7.28787C21.0403 6.49326 21.4588 5.76469 21.9782 5.13688ZM60.8653 40.3887C60.2994 40.3887 59.8422 39.9276 59.8422 39.3617C59.8422 38.7958 60.2995 38.3386 60.8653 38.3386H63.3843C63.9502 38.3386 64.4075 38.7959 64.4075 39.3617C64.4075 39.9276 63.9501 40.3887 63.3843 40.3887H60.8653ZM49.9595 40.3887C49.3937 40.3887 48.9364 39.9276 48.9364 39.3617C48.9364 38.7958 49.3939 38.3386 49.9595 38.3386H52.4787C53.0447 38.3386 53.5019 38.7959 53.5019 39.3617C53.5019 39.9276 53.0445 40.3887 52.4787 40.3887H49.9595ZM39.0537 40.3887C38.4878 40.3887 38.0306 39.9276 38.0306 39.3617C38.0306 38.7958 38.488 38.3386 39.0537 38.3386H41.573C42.1388 38.3386 42.5961 38.7959 42.5961 39.3617C42.5961 39.9276 42.1388 40.3887 41.573 40.3887H39.0537ZM28.1481 40.3887C27.5822 40.3887 27.1249 39.9276 27.1249 39.3617C27.1249 38.7958 27.5822 38.3386 28.1481 38.3386H30.6671C31.233 38.3386 31.6902 38.7959 31.6902 39.3617C31.6902 39.9276 31.2328 40.3887 30.6671 40.3887H28.1481ZM17.2462 40.3887C16.6765 40.3887 16.2192 39.9276 16.2192 39.3617C16.2192 38.7958 16.6765 38.3386 17.2462 38.3386H19.7615C20.3272 38.3386 20.7847 38.7959 20.7847 39.3617C20.7847 39.9276 20.3272 40.3887 19.7615 40.3887H17.2462ZM6.34033 40.3887C5.77062 40.3887 5.3133 39.9276 5.3133 39.3617C5.3133 38.7958 5.77062 38.3386 6.34033 38.3386H8.85555C9.42142 38.3386 9.88258 38.7959 9.88258 39.3617C9.88258 39.9276 9.42142 40.3887 8.85555 40.3887H6.34033ZM66.4577 37.7339C65.8919 37.7339 65.4347 37.2728 65.4347 36.7069C65.4347 36.141 65.892 35.6838 66.4577 35.6838H67.9499V33.7538H64.3301C63.7641 33.7538 63.3069 33.2925 63.3069 32.7267C63.3069 32.1608 63.7642 31.6997 64.3301 31.6997H68.9768C69.5427 31.6997 69.9999 32.161 69.9999 32.7267V66.7035C69.9999 67.2694 69.5425 67.7267 68.9768 67.7267H1.02703C0.461152 67.7267 0 67.2694 0 66.7035V32.7267C0 32.1608 0.461289 31.6997 1.02703 31.6997H20.6527L30.7058 16.6355C30.3222 16.4844 29.9734 16.2518 29.6866 15.9612C29.1402 15.4147 28.7991 14.6629 28.7991 13.8296V5.60186C28.7991 4.77252 29.1402 4.01674 29.6827 3.47028C30.2292 2.92778 30.9848 2.58666 31.8143 2.58666H38.1857C39.015 2.58666 39.7708 2.92778 40.3173 3.47028C40.8637 4.01674 41.201 4.77239 41.201 5.60186V13.8296C41.201 14.6629 40.8637 15.4147 40.3173 15.9612C40.0266 16.2518 39.6817 16.4844 39.2942 16.6355L49.3473 31.6997H59.6872C60.253 31.6997 60.7104 32.161 60.7104 32.7267C60.7104 33.2926 60.2529 33.7538 59.6872 33.7538H36.027V42.1364H67.9499V37.7338H66.4577V37.7339ZM55.552 37.7339C54.9861 37.7339 54.5289 37.2728 54.5289 36.7069C54.5289 36.141 54.9862 35.6838 55.552 35.6838H58.071C58.6369 35.6838 59.0942 36.1411 59.0942 36.7069C59.0942 37.2728 58.6367 37.7339 58.071 37.7339H55.552ZM44.6463 37.7339C44.0804 37.7339 43.6233 37.2728 43.6233 36.7069C43.6233 36.141 44.0806 35.6838 44.6463 35.6838H47.1654C47.7312 35.6838 48.1884 36.1411 48.1884 36.7069C48.1884 37.2728 47.7311 37.7339 47.1654 37.7339H44.6463ZM22.8386 37.7339C22.2689 37.7339 21.8116 37.2728 21.8116 36.7069C21.8116 36.141 22.2689 35.6838 22.8386 35.6838H25.3538C25.9195 35.6838 26.3808 36.1411 26.3808 36.7069C26.3808 37.2728 25.9195 37.7339 25.3538 37.7339H22.8386ZM11.9328 37.7339C11.3669 37.7339 10.9058 37.2728 10.9058 36.7069C10.9058 36.141 11.3671 35.6838 11.9328 35.6838H14.448C15.0139 35.6838 15.4751 36.1411 15.4751 36.7069C15.4751 37.2728 15.0139 37.7339 14.448 37.7339H11.9328ZM33.5467 10.7408C32.9808 10.7408 32.5196 10.2835 32.5196 9.71778C32.5196 9.1519 32.9808 8.69061 33.5467 8.69061H36.4533C37.023 8.69061 37.4803 9.1519 37.4803 9.71778C37.4803 10.2835 37.023 10.7408 36.4533 10.7408H33.5467ZM23.1098 31.6997H33.9768V16.8486H33.0233L23.1098 31.6997ZM36.027 31.6997H46.8901L36.9765 16.8486H36.027V31.6997ZM38.1857 4.63676H31.8143C31.5507 4.63676 31.3104 4.74532 31.1361 4.9236C30.9578 5.09805 30.8492 5.33826 30.8492 5.60186V13.8296C30.8492 14.097 30.9578 14.3372 31.1361 14.5117C31.3104 14.6861 31.5507 14.7985 31.8143 14.7985H38.1857C38.4493 14.7985 38.6933 14.6861 38.8678 14.5117C39.0421 14.3372 39.1506 14.097 39.1506 13.8296V5.60186C39.1506 5.33826 39.0421 5.09805 38.8678 4.9236C38.6933 4.74532 38.4491 4.63676 38.1857 4.63676Z" fill="black"/>
</g>
<defs>
<clipPath id="clip0">
<rect width="70" height="70" fill="white"/>
</clipPath>
</defs>
</svg>
