<svg width="70" height="70" viewBox="0 0 70 70" fill="none" xmlns="http://www.w3.org/2000/svg">
<path d="M67.0651 43.7498H2.93486C1.79727 43.7498 0.875 42.9849 0.875 42.0415V6.08302C0.875 5.1396 1.79727 4.37476 2.93486 4.37476H67.0651C68.2027 4.37476 69.125 5.1396 69.125 6.08302V42.0414C69.125 42.9849 68.2027 43.7498 67.0651 43.7498Z" fill="white"/>
<path d="M42.8751 61.2498H27.1251L28.4618 51.6248H41.5384L42.8751 61.2498Z" fill="white"/>
<path d="M48.329 65.3133H21.6709C21.1545 65.3133 20.7359 64.8946 20.7359 64.3782V63.9548C20.7359 62.602 21.8325 61.5054 23.1854 61.5054H46.8146C48.1674 61.5054 49.264 62.602 49.264 63.9548V64.3782C49.2642 64.8946 48.8456 65.3133 48.329 65.3133Z" fill="white"/>
<path d="M23.8216 24.6706L33.5374 28.9855V17.1123L23.8216 12.7974L14.1058 17.1123V28.9855L23.8216 24.6706Z" fill="white"/>
<path d="M33.5374 29.0185L23.8216 33.3335V21.4602L33.5374 17.1453V29.0185Z" fill="#F2BC18"/>
<path d="M14.1058 29.0185L23.8216 33.3335V21.4602L14.1058 17.1453V29.0185Z" fill="#F2BC18"/>
<path d="M9.21906 16.6427C10.2809 16.6427 11.1417 15.7819 11.1417 14.72C11.1417 13.6582 10.2809 12.7974 9.21906 12.7974C8.1572 12.7974 7.29639 13.6582 7.29639 14.72C7.29639 15.7819 8.1572 16.6427 9.21906 16.6427Z" fill="#FFD500"/>
<path d="M30.6954 38.4447C31.7572 38.4447 32.618 37.5839 32.618 36.5222C32.618 35.4604 31.7572 34.5996 30.6954 34.5996C29.6336 34.5996 28.7729 35.4604 28.7729 36.5222C28.7729 37.5839 29.6336 38.4447 30.6954 38.4447Z" fill="#FFD500"/>
<path d="M59.6536 36.2423H48.663C48.057 36.2423 47.5657 35.7509 47.5657 35.1449V32.3795C47.5657 31.7735 48.0571 31.2822 48.663 31.2822H59.6536C60.2597 31.2822 60.7509 31.7736 60.7509 32.3795V35.1449C60.751 35.7509 60.2597 36.2423 59.6536 36.2423Z" fill="#FFD500"/>
<path d="M66.9238 3.66089H13.3206C12.7544 3.66089 12.2953 4.11999 12.2953 4.68628C12.2953 5.25257 12.7544 5.71167 13.3206 5.71167H66.9238C67.4893 5.71167 67.9492 6.17159 67.9492 6.73706V42.6658H56.6244C56.058 42.6658 55.599 43.1249 55.599 43.6912C55.599 44.2575 56.058 44.7166 56.6244 44.7166H67.9492V49.9052C67.9492 50.4705 67.4893 50.9306 66.9238 50.9306H3.07617C2.5107 50.9306 2.05078 50.4705 2.05078 49.9052V44.7166H52.5228C53.0893 44.7166 53.5482 44.2575 53.5482 43.6912C53.5482 43.1249 53.0893 42.6658 52.5228 42.6658H2.05078V6.73706C2.05078 6.17159 2.5107 5.71167 3.07617 5.71167H9.21908C9.78537 5.71167 10.2445 5.25257 10.2445 4.68628C10.2445 4.11999 9.78537 3.66089 9.21908 3.66089H3.07617C1.3799 3.66089 0 5.04093 0 6.73706V49.9052C0 51.6013 1.3799 52.9814 3.07617 52.9814H26.7861L26.0196 60.4798H23.1854C21.2693 60.4798 19.7105 62.0387 19.7105 63.9548V64.3782C19.7105 65.4593 20.59 66.3386 21.6709 66.3386H48.329C49.41 66.3386 50.2895 65.4591 50.2895 64.3782V63.9548C50.2895 62.0387 48.7307 60.4798 46.8146 60.4798H43.9804L43.2139 52.9814H66.9238C68.62 52.9814 70 51.6013 70 49.9052V6.73706C70 5.04093 68.62 3.66089 66.9238 3.66089ZM48.2388 63.9548V64.288H21.7611V63.9548C21.7611 63.1695 22.4 62.5306 23.1853 62.5306H46.8146C47.5999 62.5306 48.2388 63.1695 48.2388 63.9548ZM41.9189 60.4798H28.0809L28.8474 52.9814H41.1525L41.9189 60.4798Z" fill="black"/>
<path d="M6.271 14.7202C6.271 16.3458 7.59348 17.6681 9.21906 17.6681C9.86506 17.6681 10.4612 17.4569 10.9475 17.1032L13.0805 18.0081V29.0186C13.0805 29.424 13.3194 29.7912 13.6898 29.9557L23.4055 34.2707L23.4068 34.2711C23.4072 34.2714 23.4076 34.2715 23.4081 34.2718L27.7671 36.1939C27.7551 36.3019 27.7477 36.4113 27.7477 36.5223C27.7477 38.1479 29.0702 39.4702 30.6957 39.4702C32.3212 39.4702 33.6436 38.1478 33.6436 36.5223C33.6436 34.8967 32.3211 33.5744 30.6957 33.5744C29.9237 33.5744 29.2222 33.875 28.6961 34.3623L26.3555 33.3302L33.9537 29.9557C34.3242 29.7912 34.5629 29.4239 34.5629 29.0186V17.1453C34.5629 17.1431 34.5625 17.1409 34.5625 17.1387C34.5726 16.7365 34.3443 16.3488 33.9537 16.1753L24.2379 11.8603C23.9729 11.7426 23.6705 11.7426 23.4055 11.8603L13.847 16.1054L12.0947 15.3619C12.1409 15.1549 12.1673 14.9407 12.1673 14.7199C12.1673 13.0943 10.8448 11.772 9.21934 11.772C7.59348 11.7721 6.271 13.0946 6.271 14.7202ZM15.1312 18.7228L22.7961 22.1269V31.7562L15.1312 28.352V18.7228ZM30.6954 35.6252C31.1902 35.6252 31.5925 36.0277 31.5925 36.5223C31.5925 37.0171 31.19 37.4195 30.6954 37.4195C30.2006 37.4195 29.7982 37.017 29.7982 36.5223C29.7982 36.0277 30.2006 35.6252 30.6954 35.6252ZM32.512 28.3521L24.847 31.7563V22.1271L32.512 18.7229V28.3521ZM23.8216 13.9194L31.0481 17.1289L23.8216 20.3384L16.595 17.1289L23.8216 13.9194ZM10.1162 14.7202C10.1162 15.215 9.71371 15.6173 9.21906 15.6173C8.72428 15.6173 8.32178 15.2148 8.32178 14.7202C8.32178 14.2254 8.72428 13.823 9.21906 13.823C9.71371 13.8229 10.1162 14.2254 10.1162 14.7202Z" fill="black"/>
<path d="M47.5652 16.4149C47.5689 16.4149 47.5726 16.4149 47.5763 16.4148L60.7616 16.2763C61.3279 16.2704 61.7821 15.8065 61.7762 15.2402C61.7702 14.6739 61.3046 14.2195 60.74 14.2256L47.5547 14.3641C46.9884 14.37 46.5342 14.8339 46.5401 15.4002C46.5461 15.9629 47.004 16.4149 47.5652 16.4149Z" fill="black"/>
<path d="M47.5652 23.0042C47.5689 23.0042 47.5726 23.0042 47.5763 23.0041L60.7616 22.8654C61.3279 22.8595 61.7821 22.3957 61.7762 21.8294C61.7702 21.2631 61.3046 20.8079 60.74 20.8148L47.5547 20.9533C46.9884 20.9593 46.5342 21.4232 46.5401 21.9893C46.5461 22.5522 47.004 23.0042 47.5652 23.0042Z" fill="black"/>
<path d="M47.5652 27.1839C47.5689 27.1839 47.5726 27.1839 47.5763 27.1838L60.7616 27.0453C61.3279 27.0393 61.7821 26.5755 61.7762 26.0092C61.7702 25.4428 61.3046 24.9904 60.74 24.9947L47.5547 25.1332C46.9884 25.139 46.5342 25.6029 46.5401 26.1692C46.5461 26.7318 47.004 27.1839 47.5652 27.1839Z" fill="black"/>
<path d="M46.5402 35.1447C46.5402 36.3151 47.4924 37.2674 48.6629 37.2674H59.6535C60.8241 37.2674 61.7762 36.3151 61.7762 35.1447V32.3793C61.7762 31.2088 60.824 30.2566 59.6535 30.2566H48.6629C47.4923 30.2566 46.5402 31.2088 46.5402 32.3793V35.1447ZM48.5909 32.3793C48.5909 32.3396 48.6232 32.3074 48.6629 32.3074H59.6535C59.6932 32.3074 59.7255 32.3396 59.7255 32.3793V35.1447C59.7255 35.1843 59.6932 35.2166 59.6535 35.2166H48.6629C48.6232 35.2166 48.5909 35.1843 48.5909 35.1447V32.3793Z" fill="black"/>
<path d="M11.0694 30.7864C10.6689 30.386 10.0196 30.386 9.61933 30.7864L9.21916 31.1867L8.81898 30.7864C8.41867 30.386 7.76939 30.386 7.36894 30.7864C6.96849 31.1869 6.96849 31.836 7.36894 32.2365L7.76925 32.6368L7.36894 33.0371C6.96849 33.4375 6.96849 34.0868 7.36894 34.4873C7.5691 34.6874 7.8316 34.7876 8.09396 34.7876C8.35632 34.7876 8.61882 34.6876 8.81898 34.4873L9.21916 34.0869L9.61933 34.4873C9.81949 34.6876 10.082 34.7876 10.3444 34.7876C10.6067 34.7876 10.8692 34.6876 11.0694 34.4873C11.4698 34.0868 11.4698 33.4375 11.0694 33.0371L10.6692 32.6368L11.0694 32.2365C11.4698 31.836 11.4698 31.1867 11.0694 30.7864Z" fill="black"/>
<path d="M36.102 15.7417C36.3023 15.9419 36.5646 16.042 36.8271 16.042C37.0895 16.042 37.352 15.9419 37.5523 15.7417L39.803 13.491C40.2034 13.0905 40.2034 12.4414 39.803 12.041C39.4025 11.6406 38.7534 11.6405 38.3528 12.041L37.9526 12.4411L37.5523 12.0408C37.152 11.6404 36.5027 11.6404 36.1021 12.0408C35.7017 12.4413 35.7017 13.0905 36.1023 13.491L36.5024 13.8912L36.1021 14.2915C35.7017 14.6919 35.7017 15.3412 36.102 15.7417Z" fill="black"/>
</svg>
