<svg width="70" height="70" viewBox="0 0 70 70" fill="none" xmlns="http://www.w3.org/2000/svg">
<path d="M34.0146 68.9746H26.4867C25.9424 68.9746 25.5012 68.5334 25.5012 67.9891V2.01086C25.5012 1.46658 25.9424 1.02539 26.4867 1.02539H34.0146C34.5588 1.02539 35 1.46658 35 2.01086V67.989C35 68.5334 34.5588 68.9746 34.0146 68.9746Z" fill="#ECF3FC"/>
<path d="M34.0145 1.02539H29.913C30.4572 1.02539 30.8984 1.46658 30.8984 2.01086V67.989C30.8984 68.5333 30.4572 68.9745 29.913 68.9745H34.0145C34.5588 68.9745 35 68.5333 35 67.989V2.01086C35 1.46658 34.5588 1.02539 34.0145 1.02539Z" fill="white"/>
<path d="M49.1061 15.3374H25.5011V7.1084L49.2028 10.1311C49.5844 10.1798 49.8703 10.5045 49.8703 10.8891V14.5734C49.8703 14.9952 49.5282 15.3374 49.1061 15.3374Z" fill="#F2BC18"/>
<path d="M25.49 21.494H21.2427C20.628 21.494 20.1298 21.9922 20.1298 22.6069V47.5376C20.1298 48.0858 20.5742 48.5303 21.1225 48.5303H25.49V31.9689H38.392C39.2244 31.9689 40.0186 31.6197 40.5815 31.0064L43.7892 27.5109C44.1623 27.1043 44.6411 26.8097 45.1722 26.6599L47.705 25.9457C48.9856 25.5845 49.8702 24.4161 49.8702 23.0854V22.0527C49.8702 21.7441 49.62 21.4939 49.3114 21.4939H25.49V21.494Z" fill="#F2BC18"/>
<path d="M43.2235 14.312C42.6572 14.312 42.1981 14.7711 42.1981 15.3374C42.1981 15.9037 42.6572 16.3628 43.2235 16.3628H49.1061C50.0928 16.3628 50.8956 15.56 50.8956 14.5733V10.889C50.8956 9.99058 50.2237 9.22756 49.3325 9.11381L36.0254 7.41685V2.011C36.0254 0.90207 35.1233 0 34.0146 0H26.4867C25.3779 0 24.4758 0.90207 24.4758 2.01086V20.4686H21.2428C20.0638 20.4686 19.1046 21.4278 19.1046 22.6069V47.5375C19.1046 48.6503 20.0098 49.5556 21.1227 49.5556H24.4758V57.7016C24.4758 58.2679 24.9349 58.727 25.5012 58.727C26.0675 58.727 26.5266 58.2679 26.5266 57.7016L26.5154 32.9943H33.9748V37.0106H32.7323C32.166 37.0106 31.7069 37.4697 31.7069 38.036C31.7069 38.6023 32.166 39.0614 32.7323 39.0614H33.9748V42.2577H32.7323C32.166 42.2577 31.7069 42.7168 31.7069 43.2831C31.7069 43.8494 32.166 44.3085 32.7323 44.3085H33.9748V47.5048H32.7323C32.166 47.5048 31.7069 47.9639 31.7069 48.5302C31.7069 49.0965 32.166 49.5556 32.7323 49.5556H33.9748V52.752H32.7323C32.166 52.752 31.7069 53.2111 31.7069 53.7774C31.7069 54.3436 32.166 54.8027 32.7323 54.8027H33.9748V57.9991H32.7323C32.166 57.9991 31.7069 58.4582 31.7069 59.0245C31.7069 59.5908 32.166 60.0499 32.7323 60.0499H33.9748V63.2462H32.7323C32.166 63.2462 31.7069 63.7053 31.7069 64.2716C31.7069 64.8379 32.166 65.297 32.7323 65.297H33.9748V67.9492H26.5266V61.8032C26.5266 61.2369 26.0675 60.7778 25.5012 60.7778C24.9349 60.7778 24.4758 61.2369 24.4758 61.8032V67.989C24.4758 69.0978 25.3779 69.9999 26.4867 69.9999H34.0146C35.1233 69.9999 36.0254 69.0978 36.0254 67.989V32.9945H38.3919C39.5085 32.9945 40.582 32.5227 41.3369 31.6999L44.5449 28.2044C44.7894 27.9379 45.1026 27.7453 45.4505 27.6471L47.9832 26.9329C49.698 26.4493 50.8956 24.8674 50.8956 23.0858V22.0527C50.8956 21.1792 50.185 20.4687 49.3115 20.4687H36.0254V16.3628H39.1218C39.6882 16.3628 40.1472 15.9037 40.1472 15.3374C40.1472 14.7711 39.6882 14.312 39.1218 14.312H26.5265V8.27285L48.8449 11.1191V14.312H43.2235ZM48.8449 23.0856C48.8449 23.9533 48.2616 24.7235 47.4268 24.959L44.894 25.6732C44.1791 25.8748 43.5358 26.2706 43.034 26.8177L39.8262 30.3131C39.4586 30.7139 38.9356 30.9436 38.392 30.9436H25.4901C24.9239 30.9436 24.4648 31.4027 24.4648 31.9689V47.5048H21.1555V26.874H25.5014C26.0676 26.874 26.5267 26.4149 26.5267 25.8486C26.5267 25.2823 26.0676 24.8232 25.5014 24.8232H21.1555V22.607C21.1555 22.5587 21.1947 22.5195 21.243 22.5195H48.8451V23.0856H48.8449ZM33.9746 16.3628V20.4687H26.5265V16.3628H33.9746ZM26.5265 2.05078H33.9746V7.15517L26.5265 6.20539V2.05078Z" fill="black"/>
</svg>
