<svg width="70" height="70" viewBox="0 0 70 70" fill="none" xmlns="http://www.w3.org/2000/svg">
<g clip-path="url(#clip0)">
<path d="M56.3345 4.55159V18.0388C56.3345 22.2672 58.1589 26.29 61.3398 29.0759C64.5222 31.863 66.3473 35.8876 66.3473 40.1178V66.6693C66.3473 67.9329 65.3228 68.9574 64.0591 68.9574H52.1686C44.9894 68.9574 39.1696 63.1376 39.1696 55.9584V32.1642C39.1696 29.8395 39.6309 27.5378 40.5265 25.3925L42.8188 19.9026C43.7146 17.7573 44.1758 15.4557 44.1758 13.1309V1.70024C44.1758 1.26951 44.5832 0.955397 44.9997 1.06492L55.8444 3.91627C56.1333 3.99216 56.3345 4.25318 56.3345 4.55159Z" fill="#F2BC18"/>
<path d="M13.6654 4.55159V18.0388C13.6654 22.2672 11.841 26.29 8.66013 29.0759C5.47771 31.863 3.65265 35.8876 3.65265 40.1178V66.6693C3.65265 67.9329 4.67713 68.9574 5.94082 68.9574H17.8313C25.0105 68.9574 30.8304 63.1376 30.8304 55.9584V32.1642C30.8304 29.8395 30.3691 27.5378 29.4733 25.3925L27.1809 19.9026C26.2852 17.7573 25.824 15.4557 25.824 13.1309V1.70024C25.824 1.26951 25.4166 0.955397 25.0001 1.06492L14.1555 3.91627C13.8667 3.99216 13.6654 4.25318 13.6654 4.55159Z" fill="#F2BC18"/>
<path d="M3.65265 52.6333V58.4137H30.5981C30.7502 57.6186 30.8304 56.798 30.8304 55.9585V52.6333H3.65265Z" fill="white"/>
<path d="M30.4952 28.7511C30.2679 27.603 29.9264 26.4778 29.4733 25.3925L27.1809 19.9023C26.2851 17.7572 25.8239 15.4555 25.8239 13.1309V1.70023C25.8239 1.26964 25.4165 0.95539 25 1.06491L20.222 2.32123L19.4445 17.1041C19.1116 23.4352 24.1554 28.7511 30.4952 28.7511Z" fill="white"/>
<path d="M3.67933 39.2471C3.6621 39.5362 3.65265 39.8265 3.65265 40.1178V44.1147H30.8304V39.2471H3.67933Z" fill="white"/>
<path d="M39.1696 52.6333V55.9585C39.1696 56.798 39.2498 57.6186 39.4019 58.4137H66.3473V52.6333H39.1696Z" fill="white"/>
<path d="M50.4931 2.50929L45 1.06492C44.5836 0.955397 44.176 1.26951 44.176 1.70024V13.1309C44.176 15.4557 43.7149 17.7572 42.8191 19.9023L40.5266 25.3925C40.0735 26.4778 39.732 27.603 39.5046 28.7511H40.2153C46.5568 28.7511 51.6011 23.4325 51.2657 17.0998L50.4931 2.50929Z" fill="white"/>
<path d="M39.1696 39.2471V44.1147H66.3473V40.1178C66.3473 39.8264 66.3379 39.5362 66.3206 39.2471H39.1696Z" fill="white"/>
<path d="M62.1777 52.6333H66.3473V58.4137H62.1777V52.6333Z" fill="#FDEBC8"/>
<path d="M66.3207 39.2471H62.1511C62.1683 39.5362 62.1778 39.8265 62.1778 40.1178V44.1147H66.3474V40.1178C66.3474 39.8265 66.3378 39.5362 66.3207 39.2471Z" fill="#FDEBC8"/>
<path d="M62.0265 28.2917C59.0716 25.7037 57.3769 21.9668 57.3769 18.0388V4.55161C57.3769 3.78036 56.856 3.1046 56.1097 2.90821L45.2651 0.0568518C44.7521 -0.0781062 44.2159 0.030166 43.7953 0.354566C43.5061 0.577643 43.3043 0.880221 43.2048 1.21977C41.8004 4.37245 38.8123 6.17944 34.9934 6.17944C31.1289 6.17944 28.2403 4.48865 26.8401 1.41602C26.7699 0.99711 26.5486 0.619756 26.2046 0.354566C25.7843 0.030305 25.2487 -0.0783842 24.7348 0.0568518L13.8898 2.90821C13.1439 3.1046 12.6229 3.78022 12.6229 4.55161V18.0388C12.6229 21.9668 10.9282 25.7037 7.9732 28.2917C4.56492 31.2768 2.61005 35.5872 2.61005 40.1178V66.6693C2.61005 68.5057 4.10418 69.9999 5.94077 69.9999H64.059C65.8956 69.9999 67.3898 68.5057 67.3898 66.6693V40.1178C67.3898 35.5872 65.435 31.2768 62.0265 28.2917ZM65.3049 43.0725H40.2119V40.2896H65.3049V43.0725ZM40.2119 45.1573H65.3049V51.5909H40.2119V45.1573ZM60.6531 29.8601C63.1248 32.0247 64.7142 34.9931 65.1693 38.2047H40.2119V32.1642C40.2119 31.3643 40.2696 30.5718 40.3827 29.7893C43.6747 29.7453 46.7301 28.4118 49.0009 26.0176C51.3103 23.5826 52.4845 20.396 52.3069 17.0447L51.6095 3.88071L55.2921 4.8489V18.0388C55.2921 22.5676 57.2461 26.8763 60.6531 29.8601ZM49.4923 3.32392L50.2249 17.155C50.3718 19.9293 49.3999 22.5672 47.4883 24.5828C45.718 26.4493 43.3718 27.5373 40.8286 27.6885C41.0094 27.0475 41.2292 26.4155 41.4885 25.7942L43.781 20.3042C44.7347 18.0198 45.2184 15.6064 45.2184 13.131V2.2002L49.4923 3.32392ZM24.7815 2.2002V13.131C24.7815 15.6065 25.2651 18.0199 26.2189 20.3043L28.5114 25.7942C28.7612 26.3926 28.9737 27.0012 29.1506 27.618C26.8151 27.3075 24.6835 26.1944 23.0754 24.4245C21.2639 22.4306 20.3442 19.8502 20.4855 17.1589L21.2229 3.13601L24.7815 2.2002ZM29.7878 51.5909H4.69488V45.1573H29.7878V51.5909ZM4.69488 53.6758H29.7878V55.9585C29.7878 56.4368 29.7563 56.9075 29.7014 57.3713H4.69488V53.6758ZM9.34697 29.8601C12.7539 26.8763 14.7078 22.5675 14.7078 18.0388V4.8489L19.1059 3.69252L18.4036 17.0493C18.2327 20.3006 19.3437 23.4177 21.5324 25.8265C23.6433 28.1499 26.5021 29.5354 29.6128 29.7585C29.729 30.551 29.7878 31.3539 29.7878 32.1645V38.2049H15.7855C15.2097 38.2049 14.7431 38.6717 14.7431 39.2474C14.7431 39.823 15.2097 40.2898 15.7855 40.2898H29.7878V43.0726H4.69488V40.2898H11.6158C12.1917 40.2898 12.6582 39.823 12.6582 39.2474C12.6582 38.6717 12.1917 38.2049 11.6158 38.2049H4.83067C5.28572 34.993 6.87519 32.0247 9.34697 29.8601ZM4.69488 66.6694V59.4562H29.2646C27.7652 64.3477 23.2075 67.915 17.8311 67.915H5.94063C5.25389 67.9152 4.69488 67.3563 4.69488 66.6694ZM25.1853 67.9152C29.1947 65.4401 31.8727 61.0065 31.8727 55.9585V32.1642C31.8727 29.6887 31.389 27.2753 30.4353 24.9909L28.1428 19.501C27.2958 17.4724 26.8664 15.3292 26.8664 13.131V5.11785C28.836 7.14736 31.6551 8.26441 34.9936 8.26441C38.2768 8.26441 41.1347 7.09037 43.1336 5.01416V13.1311C43.1336 15.3293 42.7041 17.4726 41.8571 19.501L39.5646 24.991C38.6108 27.2756 38.1271 29.689 38.1271 32.1642V55.9585C38.1271 61.0065 40.8051 65.4401 44.8145 67.9152H25.1853ZM64.059 67.9152H52.1686C46.7922 67.9152 42.2343 64.3477 40.7349 59.4563H55.2616C55.8374 59.4563 56.304 58.9896 56.304 58.4139C56.304 57.8382 55.8374 57.3715 55.2616 57.3715H40.2982C40.2433 56.9077 40.2119 56.4369 40.2119 55.9587V53.6759H65.3049V57.3715H59.4313C58.8554 57.3715 58.3889 57.8382 58.3889 58.4139C58.3889 58.9896 58.8554 59.4563 59.4313 59.4563H65.3049V66.6695C65.3049 67.3563 64.7461 67.9152 64.059 67.9152Z" fill="black"/>
</g>
<defs>
<clipPath id="clip0">
<rect width="70" height="70" fill="white"/>
</clipPath>
</defs>
</svg>
