<svg width="25" height="24" viewBox="0 0 25 24" fill="none" xmlns="http://www.w3.org/2000/svg">
<path d="M12.5 23C18.8513 23 24 18.0751 24 12C24 5.92487 18.8513 1 12.5 1C6.14873 1 1 5.92487 1 12C1 18.0751 6.14873 23 12.5 23Z" stroke="#F2BC18" stroke-width="2" stroke-miterlimit="10" stroke-linecap="round" stroke-linejoin="round"/>
<path d="M13.5454 1.1001C16.7863 3.8001 18.7727 7.7 18.7727 12C18.7727 16.4 16.7863 20.2999 13.5454 22.8999" stroke="#F2BC18" stroke-width="2" stroke-miterlimit="10" stroke-linecap="round" stroke-linejoin="round"/>
<path d="M11.4543 22.8999C8.21341 20.1999 6.22705 16.3 6.22705 12C6.22705 7.6 8.21341 3.7001 11.4543 1.1001" stroke="#F2BC18" stroke-width="2" stroke-miterlimit="10" stroke-linecap="round" stroke-linejoin="round"/>
<path d="M12.5 1V23" stroke="#F2BC18" stroke-width="2" stroke-miterlimit="10" stroke-linecap="round" stroke-linejoin="round"/>
<path d="M2.04541 8H22.9545" stroke="#F2BC18" stroke-width="2" stroke-miterlimit="10" stroke-linecap="round" stroke-linejoin="round"/>
<path d="M2.04541 16H22.9545" stroke="#F2BC18" stroke-width="2" stroke-miterlimit="10" stroke-linecap="round" stroke-linejoin="round"/>
</svg>
