<svg width="17" height="18" viewBox="0 0 17 18" fill="none" xmlns="http://www.w3.org/2000/svg">
<path d="M14.1599 3.34014C17.28 6.46032 17.28 11.5397 14.1599 14.6599C11.0397 17.78 5.96032 17.78 2.84014 14.6599C-0.280046 11.5397 -0.280046 6.46032 2.84014 3.34014C5.96032 0.219954 11.0397 0.219954 14.1599 3.34014Z" stroke="white" stroke-miterlimit="10" stroke-linecap="round" stroke-linejoin="round"/>
<path d="M8.5 9V13.3537" stroke="white" stroke-miterlimit="10" stroke-linecap="round" stroke-linejoin="round"/>
<path d="M8.50008 9H7.04883" stroke="white" stroke-miterlimit="10" stroke-linecap="round" stroke-linejoin="round"/>
<path d="M8.50008 9H7.04883" stroke="white" stroke-miterlimit="10" stroke-linecap="round" stroke-linejoin="round"/>
<path d="M9.22566 5.37186C9.22566 5.80724 8.93541 6.09749 8.50004 6.09749C8.06466 6.09749 7.77441 5.80724 7.77441 5.37186C7.77441 4.93649 8.06466 4.64624 8.50004 4.64624C8.93541 4.64624 9.22566 4.93649 9.22566 5.37186Z" stroke="white" stroke-miterlimit="10" stroke-linecap="round" stroke-linejoin="round"/>
<path d="M9.95133 13.3538H7.04883" stroke="white" stroke-miterlimit="10" stroke-linecap="round" stroke-linejoin="round"/>
</svg>
