<svg width="22" height="17" viewBox="0 0 22 17" fill="none" xmlns="http://www.w3.org/2000/svg">
<path d="M21.7311 3.38832C21.5159 1.57732 20.5477 0.467354 18.8802 0.292096C16.9438 0.116838 12.7482 0 10.8117 0C6.88509 0 5.11002 0.116838 3.22738 0.292096C1.45232 0.467354 0.645477 1.34364 0.322738 3.15464C0.107579 4.38144 0 5.54983 0 8.35395C0 10.866 0.107579 12.3849 0.268949 13.7285C0.484108 15.5395 1.61369 16.5326 3.33496 16.7079C5.27139 16.8832 9.19804 17 11.0807 17C12.9633 17 17.1051 16.8832 18.9878 16.6495C20.6553 16.4158 21.4621 15.4811 21.7311 13.6701C21.7311 13.6701 22 11.7423 22 8.35395C22 6.42612 21.8924 4.61512 21.7311 3.38832ZM8.71394 11.8591V4.96564L14.7384 8.35395L8.71394 11.8591Z"/>
</svg>
