<svg width="19" height="19" viewBox="0 0 19 19" fill="none" xmlns="http://www.w3.org/2000/svg">
<path d="M13.529 0H5.472C2.45165 0 0 2.45165 0 5.45235V13.5652C0 16.5494 2.45165 19 5.472 19H13.528C16.5494 19 19 16.5494 19 13.5466V5.45339C19.001 2.45165 16.5494 0 13.529 0ZM4.56 9.50052C4.56 6.77072 6.77486 4.56 9.50052 4.56C12.2262 4.56 14.44 6.77072 14.44 9.50052C14.44 12.2303 12.2251 14.44 9.50052 14.44C6.77486 14.44 4.56 12.2303 4.56 9.50052ZM14.9353 5.03565C14.2994 5.03565 13.7937 4.53208 13.7937 3.89616C13.7937 3.26024 14.2983 2.75565 14.9353 2.75565C15.5702 2.75565 16.0748 3.26024 16.0748 3.89616C16.0748 4.53208 15.5702 5.03565 14.9353 5.03565Z"/>
<path d="M9.49998 6.37598C7.76898 6.37598 6.37598 7.77398 6.37598 9.49998C6.37598 11.225 7.76898 12.624 9.49998 12.624C11.232 12.624 12.624 11.225 12.624 9.49998C12.624 7.77498 11.211 6.37598 9.49998 6.37598Z"/>
</svg>
