<svg width="81" height="18" viewBox="0 0 81 18" fill="none" xmlns="http://www.w3.org/2000/svg">
<path d="M9.162 3.4L6.912 8.836C6.588 9.646 6.138 10.942 5.904 11.644H5.832C5.598 10.942 5.148 9.646 4.824 8.836L2.574 3.4H1.386V16H2.502V9.34C2.502 8.008 2.466 6.892 2.394 5.776L2.466 5.758C2.79 6.658 3.294 7.864 3.762 9.07L5.31 13.03H6.426L7.974 9.07C8.442 7.864 8.946 6.658 9.27 5.758L9.342 5.776C9.27 6.892 9.234 8.008 9.234 9.34V16H10.35V3.4H9.162ZM14.2442 14.974V10.114H18.6902V9.088H14.2442V4.426H18.9962V3.4H13.1282V16H19.1942V14.974H14.2442ZM26.9 3.4V9.07H22.418V3.4H21.302V16H22.418V10.114H26.9V16H28.016V3.4H26.9ZM37.7782 3.238C35.5102 3.238 34.1782 4.84 34.1782 7.558V9.07H31.9102V3.4H30.7942V16H31.9102V10.114H34.1782V11.842C34.1782 14.56 35.5102 16.162 37.7782 16.162C40.0462 16.162 41.3782 14.56 41.3782 11.842V7.558C41.3782 4.84 40.0462 3.238 37.7782 3.238ZM40.2442 11.842C40.2442 13.966 39.3982 15.082 37.7782 15.082C36.1582 15.082 35.3122 13.966 35.3122 11.842V7.558C35.3122 5.434 36.1582 4.318 37.7782 4.318C39.3982 4.318 40.2442 5.434 40.2442 7.558V11.842Z" fill="black"/>
<path d="M58 1H80" stroke="black" stroke-width="2" stroke-miterlimit="10" stroke-linecap="round" stroke-linejoin="round"/>
<path d="M66 9H80" stroke="black" stroke-width="2" stroke-miterlimit="10" stroke-linecap="round" stroke-linejoin="round"/>
<path d="M58 17H80" stroke="black" stroke-width="2" stroke-miterlimit="10" stroke-linecap="round" stroke-linejoin="round"/>
</svg>
