<svg width="162" height="59" viewBox="0 0 162 59" fill="none" xmlns="http://www.w3.org/2000/svg">
<path d="M72.632 7.4H65.288V9.506H67.826V20H70.094V9.506H72.632V7.4ZM79.8431 13.538C80.5631 12.98 80.9951 11.99 80.9951 10.91C80.9951 8.786 79.6451 7.4 77.6651 7.4H73.9751V20H77.7731C79.9511 20 81.4451 18.56 81.4451 16.31C81.4451 15.086 80.8511 14.042 79.8431 13.538ZM77.3231 9.488C78.2951 9.488 78.7451 9.992 78.7451 11C78.7451 12.026 78.2951 12.584 77.3951 12.584H76.1891V9.488H77.3231ZM77.4311 17.912H76.1891V14.654H77.4131C78.5291 14.654 79.1771 15.212 79.1771 16.31C79.1771 17.372 78.5831 17.912 77.4311 17.912ZM86.8216 20.216C89.3056 20.216 90.7816 18.614 90.7816 15.95V11.45C90.7816 8.786 89.3056 7.184 86.8216 7.184C84.3196 7.184 82.8436 8.786 82.8436 11.45V15.95C82.8436 18.614 84.3196 20.216 86.8216 20.216ZM86.8216 18.074C85.7056 18.074 85.1296 17.318 85.1296 15.95V11.45C85.1296 10.082 85.7056 9.326 86.8216 9.326C87.9376 9.326 88.4956 10.082 88.4956 11.45V15.95C88.4956 17.318 87.9376 18.074 86.8216 18.074ZM97.9493 16.256C97.8593 17.516 97.3193 18.074 96.2213 18.074C95.2853 18.074 94.7273 17.48 94.7273 16.22V14.528H97.6073V12.692H94.7273V11.18C94.7273 9.884 95.2853 9.29 96.2033 9.29C97.2833 9.29 97.8233 9.848 97.8953 11.144H100.109C100.001 8.57 98.6333 7.148 96.2213 7.148C93.8633 7.148 92.4413 8.57 92.4413 11.18V16.22C92.4413 18.812 93.8813 20.216 96.2213 20.216C98.6513 20.216 100.073 18.812 100.163 16.256H97.9493ZM72.056 31.538C72.776 30.98 73.208 29.99 73.208 28.91C73.208 26.786 71.858 25.4 69.878 25.4H66.188V38H69.986C72.164 38 73.658 36.56 73.658 34.31C73.658 33.086 73.064 32.042 72.056 31.538ZM69.536 27.488C70.508 27.488 70.958 27.992 70.958 29C70.958 30.026 70.508 30.584 69.608 30.584H68.402V27.488H69.536ZM69.644 35.912H68.402V32.654H69.626C70.742 32.654 71.39 33.212 71.39 34.31C71.39 35.372 70.796 35.912 69.644 35.912ZM77.4899 35.912V32.618H81.2699V30.602H77.4899V27.488H81.6119V25.4H75.2759V38H81.7919V35.912H77.4899ZM84.4711 25.4C84.2371 30.656 84.0931 33.068 83.8771 34.364C83.6251 35.822 83.2291 36.2 82.4551 36.2V38.198C84.3811 38.198 85.5871 37.604 86.0011 34.904C86.2351 33.446 86.4151 30.98 86.5951 27.488H88.9351V38H91.1491V25.4H84.4711ZM93.522 38H95.718L98.256 32.186C98.634 31.322 98.976 30.314 99.3 29.45L99.354 29.504C99.21 30.836 99.12 32.888 99.12 34.076V38H101.28V25.4H99.066L96.384 31.556C96.042 32.312 95.736 33.176 95.466 33.878L95.412 33.842C95.574 32.474 95.682 30.566 95.682 29.522V25.4H93.522V38ZM109.263 38H111.783L107.859 30.89L111.243 25.4H108.687L106.581 29.09L105.843 30.566V25.4H103.665V38H105.843V34.076L106.617 32.87L109.263 38ZM115.054 35.912V32.618H118.834V30.602H115.054V27.488H119.176V25.4H112.84V38H119.356V35.912H115.054ZM69.806 48.278H68.402V45.47H72.974V43.4H66.188V56H69.806C72.362 56 73.676 54.74 73.676 52.13C73.676 49.844 72.362 48.278 69.806 48.278ZM69.644 53.894H68.402V50.348H69.644C70.724 50.348 71.39 50.924 71.39 52.13C71.39 53.354 70.724 53.894 69.644 53.894ZM79.8144 43.4L78.1764 49.034L76.3764 43.4H74.0364L77.1864 52.454C76.7724 53.858 76.3764 54.218 75.4044 54.218H74.8644V56.198H75.3324C77.4384 56.198 78.3744 55.604 79.1484 53.12L82.1364 43.4H79.8144ZM90.1196 53.93V43.4H83.6396L83.4236 49.034C83.3516 50.87 82.9916 52.832 81.9656 53.93H81.1916V58.124H83.3696V56H89.0756V58.124H91.2536V53.93H90.1196ZM87.9236 53.93H84.5576C85.1876 52.796 85.4936 51.32 85.5476 49.664L85.7096 45.488H87.9236V53.93ZM92.7134 43.4V56H94.9274V43.4H92.7134ZM103.152 49.538C103.872 48.98 104.304 47.99 104.304 46.91C104.304 44.786 102.954 43.4 100.974 43.4H97.2837V56H101.082C103.26 56 104.754 54.56 104.754 52.31C104.754 51.086 104.16 50.042 103.152 49.538ZM100.632 45.488C101.604 45.488 102.054 45.992 102.054 47C102.054 48.026 101.604 48.584 100.704 48.584H99.4977V45.488H100.632ZM100.74 53.912H99.4977V50.654H100.722C101.838 50.654 102.486 51.212 102.486 52.31C102.486 53.372 101.892 53.912 100.74 53.912ZM111.628 43.4V48.584H108.586V43.4H106.372V56H108.586V50.69H111.628V56H113.86V43.4H111.628ZM116.233 56H118.429L120.967 50.186C121.345 49.322 121.687 48.314 122.011 47.45L122.065 47.504C121.921 48.836 121.831 50.888 121.831 52.076V56H123.991V43.4H121.777L119.095 49.556C118.753 50.312 118.447 51.176 118.177 51.878L118.123 51.842C118.285 50.474 118.393 48.566 118.393 47.522V43.4H116.233V56ZM132.784 58.124H134.962V53.894H133.81V43.4H131.578V53.894H128.59V43.4H126.375V56H132.784V58.124ZM142.839 43.4H135.495V45.506H138.033V56H140.301V45.506H142.839V43.4ZM150.05 49.538C150.77 48.98 151.202 47.99 151.202 46.91C151.202 44.786 149.852 43.4 147.872 43.4H144.182V56H147.98C150.158 56 151.652 54.56 151.652 52.31C151.652 51.086 151.058 50.042 150.05 49.538ZM147.53 45.488C148.502 45.488 148.952 45.992 148.952 47C148.952 48.026 148.502 48.584 147.602 48.584H146.396V45.488H147.53ZM147.638 53.912H146.396V50.654H147.62C148.736 50.654 149.384 51.212 149.384 52.31C149.384 53.372 148.79 53.912 147.638 53.912ZM157.029 56.216C159.513 56.216 160.989 54.614 160.989 51.95V47.45C160.989 44.786 159.513 43.184 157.029 43.184C154.527 43.184 153.051 44.786 153.051 47.45V51.95C153.051 54.614 154.527 56.216 157.029 56.216ZM157.029 54.074C155.913 54.074 155.337 53.318 155.337 51.95V47.45C155.337 46.082 155.913 45.326 157.029 45.326C158.145 45.326 158.703 46.082 158.703 47.45V51.95C158.703 53.318 158.145 54.074 157.029 54.074Z" fill="black"/>
<rect y="5" width="53" height="53" fill="#F2BC18"/>
<g clip-path="url(#clip0)">
<path d="M24.9625 42.4558C24.9838 42.3059 25.146 42.1925 25.3391 42.1925H28.6608C28.854 42.1925 29.0161 42.3059 29.0374 42.4557L29.9682 49H41.0118C41.509 49 41.9813 48.8301 42.3046 48.535C42.628 48.2399 42.7698 47.849 42.6931 47.4653L38.225 25.1243C38.0955 24.477 37.3819 24 36.5436 24H27.7017L27.9761 27.5926C27.9823 27.6741 27.9453 27.7539 27.8735 27.8132C27.802 27.8725 27.7022 27.9063 27.5978 27.9063H26.402C26.2976 27.9063 26.198 27.8725 26.1262 27.8132C26.0547 27.7539 26.0177 27.6741 26.0238 27.5926L26.2983 24H17.4564C16.618 24 15.9045 24.477 15.775 25.1243L11.3068 47.4654C11.2301 47.8491 11.372 48.24 11.6954 48.535C12.0186 48.8301 12.491 49.0001 12.9882 49.0001H24.0318L24.9625 42.4558ZM25.971 30.5215C25.9873 30.3681 26.1515 30.2501 26.3486 30.2501H27.6514C27.8485 30.2501 28.0127 30.3681 28.029 30.5215L28.9657 39.3042C28.9746 39.3867 28.9387 39.4683 28.867 39.5293C28.7953 39.5901 28.6941 39.6248 28.5882 39.6248H25.4118C25.3058 39.6248 25.2046 39.5901 25.133 39.5293C25.0612 39.4683 25.0254 39.3867 25.0343 39.3042L25.971 30.5215Z" fill="black"/>
</g>
<path d="M11.5976 16.4607L11.5975 19.5418C11.5975 20.9496 12.7427 22.0947 14.1504 22.0947L14.8564 22.0947C15.1325 22.0947 15.3564 21.8709 15.3564 21.5947L15.3567 14.4076C15.3567 14.1314 15.1328 13.9075 14.8567 13.9075L14.1507 13.9076C12.7397 13.9076 11.5976 15.0495 11.5976 16.4607Z" fill="black"/>
<path d="M38.7783 21.521C38.7783 21.9291 39.2408 22.1653 39.5714 21.9261L44.1946 18.5805C44.3857 18.4491 44.5 18.232 44.5 18.0001C44.5 17.7678 44.3856 17.5508 44.1947 17.4196L39.5716 14.074C39.241 13.8347 38.7785 14.0709 38.7785 14.479L38.7783 21.521Z" fill="black"/>
<path d="M17 21.0892C17 21.6433 17.4506 22.0918 18.0047 22.0892L36.0046 22.0047C36.5551 22.0021 37 21.5551 36.9999 21.0047L36.9997 15C36.9997 14.4477 36.552 14 35.9997 14L18 14C17.4477 14 17 14.4477 17 15L17 21.0892Z" fill="black"/>
<defs>
<clipPath id="clip0">
<rect width="32" height="25" fill="white" transform="translate(11 24)"/>
</clipPath>
</defs>
</svg>
