<svg width="162" height="55" viewBox="0 0 162 55" fill="none" xmlns="http://www.w3.org/2000/svg">
<path d="M72.632 3.4H65.288V5.506H67.826V16H70.094V5.506H72.632V3.4ZM79.8431 9.538C80.5631 8.98 80.9951 7.99 80.9951 6.91C80.9951 4.786 79.6451 3.4 77.6651 3.4H73.9751V16H77.7731C79.9511 16 81.4451 14.56 81.4451 12.31C81.4451 11.086 80.8511 10.042 79.8431 9.538ZM77.3231 5.488C78.2951 5.488 78.7451 5.992 78.7451 7C78.7451 8.026 78.2951 8.584 77.3951 8.584H76.1891V5.488H77.3231ZM77.4311 13.912H76.1891V10.654H77.4131C78.5291 10.654 79.1771 11.212 79.1771 12.31C79.1771 13.372 78.5831 13.912 77.4311 13.912ZM86.8216 16.216C89.3056 16.216 90.7816 14.614 90.7816 11.95V7.45C90.7816 4.786 89.3056 3.184 86.8216 3.184C84.3196 3.184 82.8436 4.786 82.8436 7.45V11.95C82.8436 14.614 84.3196 16.216 86.8216 16.216ZM86.8216 14.074C85.7056 14.074 85.1296 13.318 85.1296 11.95V7.45C85.1296 6.082 85.7056 5.326 86.8216 5.326C87.9376 5.326 88.4956 6.082 88.4956 7.45V11.95C88.4956 13.318 87.9376 14.074 86.8216 14.074ZM97.9493 12.256C97.8593 13.516 97.3193 14.074 96.2213 14.074C95.2853 14.074 94.7273 13.48 94.7273 12.22V10.528H97.6073V8.692H94.7273V7.18C94.7273 5.884 95.2853 5.29 96.2033 5.29C97.2833 5.29 97.8233 5.848 97.8953 7.144H100.109C100.001 4.57 98.6333 3.148 96.2213 3.148C93.8633 3.148 92.4413 4.57 92.4413 7.18V12.22C92.4413 14.812 93.8813 16.216 96.2213 16.216C98.6513 16.216 100.073 14.812 100.163 12.256H97.9493ZM72.056 27.538C72.776 26.98 73.208 25.99 73.208 24.91C73.208 22.786 71.858 21.4 69.878 21.4H66.188V34H69.986C72.164 34 73.658 32.56 73.658 30.31C73.658 29.086 73.064 28.042 72.056 27.538ZM69.536 23.488C70.508 23.488 70.958 23.992 70.958 25C70.958 26.026 70.508 26.584 69.608 26.584H68.402V23.488H69.536ZM69.644 31.912H68.402V28.654H69.626C70.742 28.654 71.39 29.212 71.39 30.31C71.39 31.372 70.796 31.912 69.644 31.912ZM77.4899 31.912V28.618H81.2699V26.602H77.4899V23.488H81.6119V21.4H75.2759V34H81.7919V31.912H77.4899ZM84.4711 21.4C84.2371 26.656 84.0931 29.068 83.8771 30.364C83.6251 31.822 83.2291 32.2 82.4551 32.2V34.198C84.3811 34.198 85.5871 33.604 86.0011 30.904C86.2351 29.446 86.4151 26.98 86.5951 23.488H88.9351V34H91.1491V21.4H84.4711ZM93.522 34H95.718L98.256 28.186C98.634 27.322 98.976 26.314 99.3 25.45L99.354 25.504C99.21 26.836 99.12 28.888 99.12 30.076V34H101.28V21.4H99.066L96.384 27.556C96.042 28.312 95.736 29.176 95.466 29.878L95.412 29.842C95.574 28.474 95.682 26.566 95.682 25.522V21.4H93.522V34ZM109.263 34H111.783L107.859 26.89L111.243 21.4H108.687L106.581 25.09L105.843 26.566V21.4H103.665V34H105.843V30.076L106.617 28.87L109.263 34ZM115.054 31.912V28.618H118.834V26.602H115.054V23.488H119.176V21.4H112.84V34H119.356V31.912H115.054ZM69.806 44.278H68.402V41.47H72.974V39.4H66.188V52H69.806C72.362 52 73.676 50.74 73.676 48.13C73.676 45.844 72.362 44.278 69.806 44.278ZM69.644 49.894H68.402V46.348H69.644C70.724 46.348 71.39 46.924 71.39 48.13C71.39 49.354 70.724 49.894 69.644 49.894ZM79.8144 39.4L78.1764 45.034L76.3764 39.4H74.0364L77.1864 48.454C76.7724 49.858 76.3764 50.218 75.4044 50.218H74.8644V52.198H75.3324C77.4384 52.198 78.3744 51.604 79.1484 49.12L82.1364 39.4H79.8144ZM90.1196 49.93V39.4H83.6396L83.4236 45.034C83.3516 46.87 82.9916 48.832 81.9656 49.93H81.1916V54.124H83.3696V52H89.0756V54.124H91.2536V49.93H90.1196ZM87.9236 49.93H84.5576C85.1876 48.796 85.4936 47.32 85.5476 45.664L85.7096 41.488H87.9236V49.93ZM92.7134 39.4V52H94.9274V39.4H92.7134ZM103.152 45.538C103.872 44.98 104.304 43.99 104.304 42.91C104.304 40.786 102.954 39.4 100.974 39.4H97.2837V52H101.082C103.26 52 104.754 50.56 104.754 48.31C104.754 47.086 104.16 46.042 103.152 45.538ZM100.632 41.488C101.604 41.488 102.054 41.992 102.054 43C102.054 44.026 101.604 44.584 100.704 44.584H99.4977V41.488H100.632ZM100.74 49.912H99.4977V46.654H100.722C101.838 46.654 102.486 47.212 102.486 48.31C102.486 49.372 101.892 49.912 100.74 49.912ZM111.628 39.4V44.584H108.586V39.4H106.372V52H108.586V46.69H111.628V52H113.86V39.4H111.628ZM116.233 52H118.429L120.967 46.186C121.345 45.322 121.687 44.314 122.011 43.45L122.065 43.504C121.921 44.836 121.831 46.888 121.831 48.076V52H123.991V39.4H121.777L119.095 45.556C118.753 46.312 118.447 47.176 118.177 47.878L118.123 47.842C118.285 46.474 118.393 44.566 118.393 43.522V39.4H116.233V52ZM132.784 54.124H134.962V49.894H133.81V39.4H131.578V49.894H128.59V39.4H126.375V52H132.784V54.124ZM142.839 39.4H135.495V41.506H138.033V52H140.301V41.506H142.839V39.4ZM150.05 45.538C150.77 44.98 151.202 43.99 151.202 42.91C151.202 40.786 149.852 39.4 147.872 39.4H144.182V52H147.98C150.158 52 151.652 50.56 151.652 48.31C151.652 47.086 151.058 46.042 150.05 45.538ZM147.53 41.488C148.502 41.488 148.952 41.992 148.952 43C148.952 44.026 148.502 44.584 147.602 44.584H146.396V41.488H147.53ZM147.638 49.912H146.396V46.654H147.62C148.736 46.654 149.384 47.212 149.384 48.31C149.384 49.372 148.79 49.912 147.638 49.912ZM157.029 52.216C159.513 52.216 160.989 50.614 160.989 47.95V43.45C160.989 40.786 159.513 39.184 157.029 39.184C154.527 39.184 153.051 40.786 153.051 43.45V47.95C153.051 50.614 154.527 52.216 157.029 52.216ZM157.029 50.074C155.913 50.074 155.337 49.318 155.337 47.95V43.45C155.337 42.082 155.913 41.326 157.029 41.326C158.145 41.326 158.703 42.082 158.703 43.45V47.95C158.703 49.318 158.145 50.074 157.029 50.074Z" fill="white"/>
<rect y="1" width="53" height="53" fill="#FFD500"/>
<g clip-path="url(#clip0)">
<path d="M24.9625 38.4558C24.9838 38.3059 25.146 38.1925 25.3391 38.1925H28.6608C28.854 38.1925 29.0161 38.3059 29.0374 38.4557L29.9682 45H41.0118C41.509 45 41.9813 44.8301 42.3046 44.535C42.628 44.2399 42.7698 43.849 42.6931 43.4653L38.225 21.1243C38.0955 20.477 37.3819 20 36.5436 20H27.7017L27.9761 23.5926C27.9823 23.6741 27.9453 23.7539 27.8735 23.8132C27.802 23.8725 27.7022 23.9063 27.5978 23.9063H26.402C26.2976 23.9063 26.198 23.8725 26.1262 23.8132C26.0547 23.7539 26.0177 23.6741 26.0238 23.5926L26.2983 20H17.4564C16.618 20 15.9045 20.477 15.775 21.1243L11.3068 43.4654C11.2301 43.8491 11.372 44.24 11.6954 44.535C12.0186 44.8301 12.491 45.0001 12.9882 45.0001H24.0318L24.9625 38.4558ZM25.971 26.5215C25.9873 26.3681 26.1515 26.2501 26.3486 26.2501H27.6514C27.8485 26.2501 28.0127 26.3681 28.029 26.5215L28.9657 35.3042C28.9746 35.3867 28.9387 35.4683 28.867 35.5293C28.7953 35.5901 28.6941 35.6248 28.5882 35.6248H25.4118C25.3058 35.6248 25.2046 35.5901 25.133 35.5293C25.0612 35.4683 25.0254 35.3867 25.0343 35.3042L25.971 26.5215Z" fill="#111111"/>
</g>
<path d="M11.5976 12.4608L11.5975 15.5419C11.5975 16.9496 12.7427 18.0948 14.1504 18.0948L14.8564 18.0948C15.1326 18.0948 15.3564 17.8709 15.3564 17.5948L15.3567 10.4076C15.3567 10.1315 15.1328 9.9076 14.8567 9.90761L14.1508 9.90763C12.7397 9.90767 11.5976 11.0496 11.5976 12.4608Z" fill="#111111"/>
<path d="M38.7783 17.521C38.7783 17.9291 39.2408 18.1654 39.5714 17.9261L44.1946 14.5805C44.3858 14.4491 44.5 14.2321 44.5 14.0001C44.5 13.7679 44.3856 13.5509 44.1947 13.4197L39.5717 10.074C39.2411 9.83479 38.7786 10.071 38.7785 10.4791L38.7783 17.521Z" fill="#111111"/>
<path d="M17 17.0892C17 17.6433 17.4506 18.0918 18.0047 18.0892L36.0047 18.0048C36.5551 18.0022 37 17.5552 37 17.0047L36.9997 11C36.9997 10.4478 36.552 10.0001 35.9997 10.0001L18 10.0001C17.4477 10.0001 17 10.4478 17 11.0001L17 17.0892Z" fill="#111111"/>
<defs>
<clipPath id="clip0">
<rect width="32" height="25" fill="white" transform="translate(11 20)"/>
</clipPath>
</defs>
</svg>
